<?xml version="1.0" standalone="no"?>
<!DOCTYPE svg PUBLIC "-//W3C//DTD SVG 1.1//EN" "http://www.w3.org/Graphics/SVG/1.1/DTD/svg11.dtd" >
<svg xmlns="http://www.w3.org/2000/svg" xmlns:xlink="http://www.w3.org/1999/xlink" version="1.1">
<metadata></metadata>
<defs>
<font id="freebooter_script_-_altsRg" horiz-adv-x="749" >
<font-face units-per-em="2048" ascent="1638" descent="-410" />
<missing-glyph horiz-adv-x="559" />
<glyph horiz-adv-x="0" />
<glyph unicode="&#xd;" horiz-adv-x="559" />
<glyph unicode=" "  horiz-adv-x="559" />
<glyph unicode="&#x09;" horiz-adv-x="559" />
<glyph unicode="&#xa0;" horiz-adv-x="559" />
<glyph unicode="'" horiz-adv-x="407" d="M356 1593q-33 31 -65 47q-8 20 -43 21q-72 0 -105 -94q-2 -12 -4 -22.5t-2 -18.5q0 -49 56 -49q43 0 59 16q-61 -240 -176 -330l-33 -30q-10 -20 -6 -27q4 -14 20 -6q16 10 27.5 18t21.5 12l48 39q90 78 135 185q30 69 67 239z" />
<glyph unicode="4" horiz-adv-x="1601" d="M1942 1505q-20 340 -402 340q-285 0 -448 -94q-229 -135 -406 -526q-47 -104 -82 -182t-68.5 -138.5t-70.5 -106.5t-84 -82t-110.5 -67t-149.5 -63q-14 0 -34.5 7t-49.5 17q-2 4 -8 4q-10 0 -13 -4q-8 -14 25 -32q80 -45 161 -75t158 -48q123 -31 227.5 -51.5 t196.5 -32.5l-237 -469q-127 -260 -266 -449q-469 -651 -1147 -633q-131 4 -253 39t-233 103q-49 31 -82 30q-4 0 -5 -2t-5 -4q0 -18 103 -71q242 -123 503 -132q754 -14 1248 646q55 76 119.5 188.5t138.5 261.5l166 348l63 129q68 -4 123 -7t98 1q78 2 146.5 12.5 t134.5 26.5q193 51 192 160q0 74 -116 166q43 -59 43 -111q0 -100 -148 -155q-51 -18 -107.5 -27.5t-121.5 -13.5q-59 -2 -111.5 -1t-103.5 5q61 123 127.5 243.5t138.5 243.5q33 55 55 74q4 4 5 7t5 5q-6 6 -22 6q-80 0 -105 -24q-131 -223 -210.5 -360.5t-108.5 -188.5 q-168 16 -327.5 50t-313.5 87q180 8 358 227q51 66 99.5 140.5t95.5 152.5t94 157t98 152q272 381 590 416q338 -6 348 -299q4 -145 -114 -229q-102 -84 -248 -86q-221 -6 -332 168q-6 8 -37 49q31 -262 369 -289q184 -12 319 92q146 121 132 299z" />
<glyph unicode="?" horiz-adv-x="882" d="M1038 1198q0 317 -559 322q-434 6 -444 -359q-6 -176 117 -280q113 -100 290 -101h21q14 0 35 2q338 37 356 305l-33 -53q-109 -178 -325 -178q-150 0 -256 74q-119 88 -119 227q0 307 334 307q508 0 508 -301q0 -127 -97 -266q-86 -127 -202 -209q-229 -199 -230 -412 q10 39 40 88.5t83 108.5q43 47 88 87t90 73q303 329 303 565zM428 70q12 51 -49 59q-72 12 -115 -41q-27 -35 10 -57q68 0 68 -37q0 -47 -59 -148q53 59 87.5 115t57.5 109z" />
<glyph unicode="B" horiz-adv-x="2279" d="M1169 -571q41 -4 79 2t73 22q23 10 59.5 29.5t83.5 52.5q143 125 129 320q-12 193 -37 270q-6 23 -22 61.5t-41 98.5q-16 41 -25.5 67.5t-5.5 36.5q12 123 322 244q434 170 434 389q0 63 -31 123q-57 123 -190 153q-86 41 -162 72t-145 49q-455 111 -760 101 q-436 -8 -445 -359q-6 -176 117 -280q113 -100 291 -101h20q14 0 35 2q338 37 357 305l-33 -53q-109 -178 -326 -178q-150 0 -256 74q-119 88 -119 227q0 299 334 307q528 14 971 -147q-35 -4 -68 -12q-59 -4 -63 -25q-59 -25 -114.5 -73t-112.5 -117q-45 -53 -105.5 -153.5 t-140.5 -254.5q-98 -180 -244 -385q-279 -383 -590 -414q-172 2 -259 77t-91 220q-2 141 115 232q53 41 114.5 61.5t133.5 24.5q227 2 335 -170q2 -4 10.5 -15.5t22.5 -33.5q-27 260 -368 288q-184 14 -316 -92q-145 -115 -133 -297q25 -342 399 -342q291 0 453 96 q213 121 401 525l111 231q59 123 104.5 205t73.5 129q127 176 283 233q16 0 34.5 2.5t39.5 4.5q123 0 176 -111q31 -66 30 -111q0 -193 -362 -352q-317 -143 -363 -264q-4 -4 -4 -12v-13q0 -27 7.5 -67.5t17.5 -98.5q16 -66 23.5 -109.5t11.5 -66.5q27 -229 30 -235 q0 -23 -7 -46.5t-17 -49.5q-117 -223 -330 -224q-92 0 -119 68q-29 74 13 123q76 90 79 94q-16 25 -43 25q-41 0 -79 -64q-41 -68 -41 -115q0 -35 16 -73q55 -119 229 -131z" />
<glyph unicode="F" horiz-adv-x="1863" d="M2632 1253q0 4 -6 9q-27 0 -37 -2q-29 -4 -60.5 -1t-68.5 9l-37 6q-111 23 -229.5 45t-245.5 47q49 80 123 109q10 6 18 10t12 8q-6 8 -16 8q-10 6 -19 0q-92 -18 -178 -123q-395 70 -681.5 105t-467.5 35q-174 0 -310 -16.5t-239 -45.5q-387 -119 -417 -412 q-8 -68 3 -133t36 -129q90 -201 225 -266q-12 -41 -17.5 -81t-5.5 -79q0 -115 47 -221q129 -317 488 -317q362 0 612 221q197 174 381 545q74 2 140.5 -2t125.5 -11h68q16 29 -39 33q-49 8 -119.5 10t-167.5 2q31 49 66 127q166 373 303 574q170 -29 306 -48.5t241 -33.5 q96 -10 139 2q27 6 27 16zM1845 1333q-88 -123 -175 -264t-175 -301l-86 -158q-86 -6 -136 -9t-67 -5q-113 -18 -162 -37q63 127 64 240q0 39 -7 73.5t-24 67.5q-57 131 -270 131q-156 0 -303 -57q-369 -137 -461 -477q-115 70 -195 245q-51 119 -32 232q68 424 958 424 q379 -1 1071 -105zM1391 578q-98 -170 -187.5 -294t-175.5 -204q-233 -221 -498 -221q-319 0 -436 276q-10 29 -17 62.5t-7 68.5q0 254 233 486q291 289 553 288q221 6 221 -227q0 -121 -80 -276q-125 -59 -125 -144q0 -31 25 -31t51 39q23 33 39.5 55.5t22.5 35.5 q51 49 178 73q31 4 81 6.5t122 6.5z" />
<glyph unicode="P" horiz-adv-x="1943" d="M1911 995q0 190 -275 363q-135 57 -218 91t-113 40q-455 111 -758 104q-430 -12 -447 -362q0 -86 31 -156.5t85 -120t129 -77t161 -27.5q8 0 22.5 2t36.5 4q338 37 357 305l-31 -55q-106 -174 -330 -178q-150 0 -254 73q-117 82 -117 228q0 297 332 307q528 12 971 -147 q-176 -8 -360 -228q-41 -51 -102.5 -152.5t-143.5 -256.5q-47 -90 -107.5 -185.5t-134.5 -197.5q-272 -381 -590 -416q-340 6 -348 301q-4 139 111 231q53 39 115.5 59.5t136.5 22.5q221 6 331 -166q4 -4 12.5 -17t24.5 -34q-31 264 -368 291q-94 8 -173 -16.5t-147 -77.5 q-145 -121 -131 -299q20 -340 401 -340q309 0 480 117q195 127 374 503l111 234q143 305 244 418q125 143 313 174q258 -152 258 -307q0 -18 -3 -39t-7 -47q-31 -135 -258 -230q-190 -84 -350 -84q-82 0 -150 19q86 -55 217 -56q72 0 151 16.5t169 45.5q59 23 107 42t83 42 q152 89 152 239z" />
<glyph unicode="Q" horiz-adv-x="1806" d="M1083 -563q0 217 -129 475q35 16 67 33.5t66 38.5q381 246 476 716l6 25q4 29 4 55v49q0 176 -72 279v25q-23 342 -450 342q-535 0 -861 -385q-119 -135 -176 -289t-57 -328q0 -86 16.5 -160.5t51.5 -140.5q86 -174 246.5 -261t357.5 -81q125 6 254 53q152 -256 151 -473 q0 -158 -69 -268q-82 -119 -238 -119q-162 0 -248 129q-66 96 -65 221q0 268 219 371q8 0 37 16q-240 8 -314 -319q-8 -27 -10 -51.5t-2 -51.5q0 -119 62 -223q94 -154 272 -170q211 -12 317 142q88 131 88 350zM678 1094q213 135 442 135q59 0 112.5 -12.5t106.5 -34.5 q25 -12 46.5 -24.5t39.5 -29.5q0 -145 -114 -231q-104 -84 -252 -86q-43 -4 -80 7t-68 32q-70 53 -69 135q0 27 7 52.5t23 56.5q-61 -72 -61 -146q0 -92 82 -147q70 -49 166 -56q180 -12 313 97q102 82 125 196q33 -70 33 -147q0 -219 -164 -498q-160 -276 -442 -420 q0 2 -2 2v2q-66 123 -141.5 226.5t-166.5 195.5q-201 197 -200 326v23q53 205 264 346zM1163 1298h-69q-340 0 -559 -211q-197 -182 -197 -409q0 -106 55 -174q47 -63 87 -111.5t75 -89.5q92 -96 165 -187t130 -177q-49 -23 -100.5 -40.5t-104.5 -31.5q-412 -29 -569 305 q-20 47 -31.5 97t-11.5 108q0 295 276 639q328 412 768 411q154 4 239 -57t103 -182q-154 102 -256 110z" />
<glyph unicode="S" horiz-adv-x="770" d="M2451 1511q-25 340 -452 340q-649 0 -1180 -835q-123 -193 -263 -457t-302 -608q-59 -129 -112.5 -225.5t-102.5 -161.5q-469 -651 -1145 -633q-135 4 -257 39t-232 102q-49 31 -80 31q-2 0 -8 -6q0 -20 100 -72q244 -123 504 -131q752 -14 1245 645q57 76 121.5 188.5 t136.5 262.5l168 348l22 49q61 127 144.5 281.5t189.5 341.5q49 82 90 140t76 93q438 557 909 563q340 2 351 -301q4 -72 -26 -129t-87 -104q-53 -41 -115.5 -62.5t-140.5 -23.5q-199 -10 -334 160q-4 6 -11 16t-13 27q29 -246 358 -265q188 -14 319 88q139 109 127 299z " />
<glyph unicode="T" horiz-adv-x="1849" d="M2879 1253q0 4 -6 9l-37 -2q-20 -4 -51.5 -1t-77.5 9q-203 33 -571 110l-55 13q-2 129 -156 135q63 -8 62 -119q-532 96 -914 111q-694 23 -942 -244q-117 -123 -117 -283q0 -70 18.5 -137.5t53.5 -126.5t84 -107.5t111 -78.5q-106 66 -175 217q-53 119 -53 203 q0 152 135 274q229 203 799 203q199 0 446.5 -22.5t546.5 -67.5q-4 -14 -7 -25.5t-5 -24.5q-152 -317 -309.5 -579t-323.5 -473q-377 -467 -841 -484q-145 -2 -244 74q-102 84 -107 227q-4 72 26 131.5t87 102.5q53 41 115.5 62.5t140.5 23.5q236 10 358 -203 q-27 244 -358 269q-188 8 -317 -93q-141 -111 -129 -295q18 -344 452 -344q809 0 1458 1323q45 92 70 165t33 130l24 -6q172 -35 323.5 -57.5t287.5 -36.5q100 -10 139 2q26 6 26 16z" />
<glyph unicode="V" horiz-adv-x="2328" d="M3480 1481q-20 340 -451 340q-504 0 -944 -510q-94 31 -156.5 50t-95.5 30q-2 129 -158 135q63 -10 64 -107v-12q-305 57 -560 85t-460 28q-559 0 -836 -246q-92 -86 -92 -236q0 -170 119 -268q111 -92 283 -92q117 0 221 49q129 63 129 170q0 61 -49 111q29 -45 28 -78 q0 -92 -129 -154q-109 -49 -209 -49q-72 0 -130 21.5t-100 61.5t-65.5 96.5t-23.5 125.5q0 129 76 203q229 203 798 203q199 0 447 -22.5t547 -67.5q-4 -20 -7.5 -32.5t-5.5 -17.5q-166 -336 -307 -580.5t-264 -398.5q-438 -557 -920 -557q-147 0 -235 84q-98 82 -98 230 q0 147 129 233q111 74 260 74q217 0 338 -203q-31 268 -396 269q-160 0 -280 -103q-129 -104 -129 -264q0 -365 452 -365q801 0 1459 1323q45 88 69.5 162t32.5 133q35 -6 88 -22.5t129 -40.5q-246 -301 -481 -774q-53 -104 -79 -193.5t-26 -161.5q0 -147 154 -153 q-61 8 -55 110q57 268 129 363l24 49q100 147 187 147q61 0 61 -94q0 -76 -55 -213q-51 -137 -52 -205q0 -41 19 -84q37 -86 119 -86q143 0 331 295q10 18 -6 35q-14 14 -30 -6q-53 -78 -88 -124t-54 -64q-98 -98 -149 -99q-41 0 -41 62q0 88 74 276q37 92 36 176 q0 180 -147 181q-57 0 -111 -27q92 166 180.5 304t174.5 249q444 -147 737 -148q63 0 135 7q178 -8 309 98q150 117 136 289zM3400 1475q6 -172 -150 -258q-127 -66 -313 -66q-293 0 -742 129l13 12q391 467 846 484q76 2 137 -14.5t108 -53.5q97 -81 101 -233z" />
<glyph unicode="W" horiz-adv-x="2365" d="M3521 1483q-18 342 -453 342q-485 0 -922 -486q-94 10 -172 23.5t-141 28.5q-2 129 -158 135q63 -10 64 -107v-12q-305 57 -560 85t-460 28q-559 0 -836 -246q-92 -86 -92 -236q0 -170 119 -268q111 -92 283 -92q117 0 221 49q129 63 129 170q0 61 -49 111q29 -45 28 -78 q0 -92 -129 -154q-109 -49 -209 -49q-72 0 -130 21.5t-100 61.5t-65.5 96.5t-23.5 125.5q0 129 76 203q229 203 798 203q199 0 447 -22.5t547 -67.5q-4 -20 -7.5 -32.5t-5.5 -17.5q-166 -336 -307 -580.5t-264 -398.5q-438 -557 -920 -557q-147 0 -235 84q-98 82 -98 230 q0 147 129 233q111 74 260 74q217 0 338 -203q-31 268 -396 269q-160 0 -280 -103q-129 -104 -129 -264q0 -365 452 -365q801 0 1459 1323q45 88 69.5 162t32.5 133q61 -14 132 -23t146 -16q-131 -156 -257 -354.5t-246 -441.5q-104 -207 -105 -353q0 -147 158 -153 q-61 10 -60 110q61 270 130 363l24 49q102 143 189 143q61 0 61 -92q0 -74 -55 -211q-53 -137 -54 -206q0 -43 19 -82q41 -86 123 -86q139 0 329 294q8 10 -6 33q-14 8 -28 -8q-53 -74 -89 -120t-55 -64q-98 -102 -147 -103q-43 0 -43 66q0 88 76 276q37 92 36 174 q0 182 -149 183q-49 0 -111 -29q104 186 202.5 334.5t191.5 265.5l178 -16q37 -2 83 8t101 35q57 25 119 84q-8 -23 -8 -54q0 -127 147 -196q115 -51 258 -51q145 0 266 100q146 117 134 289zM3443 1477q4 -72 -26 -129.5t-87 -104.5q-53 -39 -115.5 -60.5t-136.5 -25.5 q-98 -4 -201 49q-123 63 -122 158q0 74 98 166q-4 2 -6 4t-6 2q-2 0 -2 -2t-5 -4q-39 -10 -69 -53q-53 -53 -95 -87t-75 -51q-100 -51 -180 -41q-41 8 -76 13.5t-70 9.5q369 444 828 457q154 6 241 -70q103 -81 105 -231z" />
<glyph unicode="Z" horiz-adv-x="1771" d="M2132 1401h-31l-24 6q-485 94 -885 111q-690 23 -1002 -244q-201 -170 -200 -402q0 -229 172 -331q-88 66 -119 217q-27 102 -4 203q37 154 201 274q279 203 847 203q358 0 867 -74q-127 -53 -264 -184q-59 -59 -143.5 -159.5t-200.5 -246.5q-139 -182 -332 -387 q-264 -279 -520 -375q0 2 -9 0q-178 -25 -178 -37q0 -4 8 -6q100 -29 400 -49l96 -10q47 -2 105.5 -4t123.5 -2q152 0 287 13t260 40q-4 -4 -6 -8t-6 -8q6 0 19.5 10t25.5 22.5t22.5 25.5t10.5 19t-11 7h-18q-176 -41 -333.5 -59.5t-305.5 -18.5q-213 0 -356 30l-21 7 q35 8 69 19t66 28q123 61 255 191t274 327l166 233q172 244 254 332q162 180 338 240l28 -6q35 30 74 53z" />
<glyph unicode="c" horiz-adv-x="1206" d="M813 874q260 176 676 250l618 111q266 74 267 246q-2 340 -455 340q-801 0 -1462 -1323q-25 -53 -45.5 -103.5t-30.5 -93.5q-14 8 -29 -10q-141 -240 -319 -240q-68 0 -68 111q0 166 141 350q82 115 160 115q74 0 74 -49q0 -57 -113 -158l6 -8q160 113 160 190 q0 76 -108 86q-111 8 -246 -127q-178 -178 -178 -371q0 -188 153 -188q10 -2 19 -2h18q147 0 311 217q-6 -37 -6 -74q0 -147 154 -153q-61 10 -59 110q61 268 129 363l24 49q100 147 189 147q63 0 63 -94q0 -76 -55 -213q-55 -133 -56 -205q0 -41 19 -84q43 -86 123 -86 q139 0 330 295q8 16 -7 35q-14 12 -28 -6q-53 -78 -88 -124t-54 -64q-98 -98 -149 -99q-43 0 -43 62q0 92 76 276q37 92 37 176q0 180 -150 181q-55 0 -111 -27q29 51 56.5 98t56.5 94zM2294 1475q-12 -133 -279 -191l-577 -115q-367 -74 -590 -241q66 109 130 199t124 165 q373 469 846 484q74 2 135 -14.5t112 -57.5q115 -84 99 -229z" />
<glyph unicode="d" horiz-adv-x="991" d="M2073 1481q-20 340 -451 340q-735 0 -1333 -1078q-23 2 -45 2h-39q-209 0 -209 -135q0 -41 31 -67q37 100 129 114q14 2 37 2h53q-31 -53 -51.5 -93t-34.5 -68q-297 -629 -566 -975q-430 -543 -913 -559q-145 -4 -242 73q-100 82 -104 228q-4 70 25.5 127t87.5 104 q53 41 115.5 63.5t136.5 24.5q217 8 335 -162q20 -31 25 -40q-25 244 -360 264q-88 8 -166 -16.5t-144 -78.5q-143 -117 -135 -292q8 -174 148 -265q121 -76 307 -75q473 0 891 454q317 352 571 869q92 199 209 405l160 -6q78 0 155 -18v-13q0 -35 -11 -68.5t-34 -62.5 q-41 -59 -63.5 -93t-28.5 -46q-55 -115 -55 -197q0 -162 141 -161q82 0 197 122q94 98 143 199q6 6 6 12q0 16 -18 17q-8 0 -19 -10q-197 -307 -307 -308q-18 0 -37 25q-18 45 23 151q33 92 85 194.5t130 219.5q-8 23 -41 49q-2 4 -6 9.5t-8 13.5q-16 6 -26.5 9t-14.5 5 q-29 14 -45 19q-49 23 -99.5 27.5t-97.5 -3.5q-39 -8 -84 -2q102 174 195.5 313.5t179.5 247.5q377 467 846 484q76 2 137 -14.5t108 -53.5q96 -82 101 -233q6 -143 -111 -232q-106 -86 -254 -88q-199 -8 -336 162l-24 41q27 -242 360 -264q186 -14 316 92q143 111 129 295z " />
<glyph unicode="e" horiz-adv-x="1136" d="M2595 1456q-12 250 -248 316q-109 66 -436 65q-145 0 -314 -18q-459 -43 -792 -355q-248 -231 -516 -721q-23 2 -45 2h-39q-209 0 -209 -135q0 -41 31 -67q37 100 129 114q14 2 37 2h53q-31 -53 -51.5 -93t-34.5 -68q-297 -629 -566 -975q-430 -543 -913 -559 q-145 -4 -242 73q-100 82 -104 228q-4 70 25.5 127t87.5 104q53 41 115.5 63.5t136.5 24.5q217 8 335 -162q20 -31 25 -40q-25 244 -360 264q-88 8 -166 -16.5t-144 -78.5q-143 -117 -135 -292q8 -174 148 -265q121 -76 307 -75q473 0 891 454q317 352 571 869 q92 199 209 405q51 -6 88 -7t59 1q135 25 136 123q0 39 -35 84q-23 -98 -119 -115q-39 -8 -84 -2q104 176 196.5 315.5t178.5 245.5q92 119 181 202t175 136q92 53 208 89t259 53q180 23 305 29.5t197 -5.5q-799 -12 -1444 -1323q-53 -104 -78.5 -188t-25.5 -148 q0 -76 36 -112q31 -47 95 -48q78 0 194 129q43 51 78 100.5t59 96.5q10 6 11 12q0 8 -11 13q-12 14 -26 -6q-147 -195 -160 -209q-80 -92 -133 -93q-51 0 -51 68q0 51 24 129q145 313 286.5 554t281.5 417q438 557 907 563q154 2 248 -75t102 -226q2 -141 -115 -233 q-53 -41 -115.5 -62.5t-138.5 -24.5q-203 -10 -331 160q-4 6 -11.5 16.5t-17.5 26.5q27 -246 360 -264q186 -14 316 92q143 111 129 295z" />
<glyph unicode="f" horiz-adv-x="1320" d="M2650 1464q-18 342 -450 342q-735 0 -1334 -1081q-23 2 -44 4t-40 2q-10 -4 -55 -4h-123h-123q-43 0 -55 4q102 174 195.5 313.5t179.5 247.5q395 492 846 508q-772 0 -1358 -1057q-23 2 -45 2h-39q-209 0 -209 -135q0 -41 31 -67q37 100 129 114q14 2 37 2h53 q-31 -53 -51.5 -93t-34.5 -68q-297 -629 -566 -975q-430 -543 -913 -559q-145 -4 -242 73q-100 82 -104 228q-4 70 25.5 127t87.5 104q53 41 115.5 63.5t136.5 24.5q217 8 335 -162q20 -31 25 -40q-25 244 -360 264q-88 8 -166 -16.5t-144 -78.5q-143 -117 -135 -292 q8 -174 148 -265q121 -76 307 -75q473 0 891 454q317 352 571 869q92 199 209 405q47 -6 95 -9t95 1l105 2h147q-35 -59 -55 -98t-31 -62q-147 -315 -286.5 -556.5t-278.5 -416.5q-451 -571 -909 -583q518 0 917 432q160 174 300.5 390t269.5 480q43 92 96 193.5t112 212.5 q51 -8 88 -9t60 3q137 20 137 123q0 41 -37 81q-23 -98 -119 -116q-43 -2 -83 0q102 174 196 313t182 250q371 469 842 481q154 6 246 -69q98 -82 104 -232q2 -141 -114 -233q-109 -80 -254 -86q-201 -10 -332 159l-29 43q29 -246 361 -264q186 -12 315 92q143 111 129 295z " />
<glyph unicode="g" horiz-adv-x="739" d="M2580 1481q-25 340 -452 340q-135 0 -266 -37q-98 37 -240 37q-797 0 -1333 -1078l-4 -6q-385 -35 -394 -360q-4 -111 54 -111q37 0 37 109q-6 258 270 301q-35 -63 -58.5 -106.5t-33.5 -71.5q-319 -678 -613 -1030q-66 160 -340 178q-74 4 -141 -11.5t-127 -56.5 q-43 31 -102.5 47.5t-136.5 20.5q-88 8 -166 -16.5t-144 -78.5q-143 -117 -135 -292q8 -174 148 -265q121 -76 307 -75q141 0 276 39q92 -39 230 -39q479 0 890 454q315 342 572 869q41 86 92 184t115 215q158 -29 290 -69t240 -93q14 -6 23 0q10 14 -23 33 q-217 109 -510 170l29 49q90 154 177 289t179 252q76 -166 338 -178q158 -10 273 61q90 -53 233 -61q188 -14 317 92q141 111 129 295zM752 659q-35 -61 -55.5 -101t-30.5 -60q-293 -631 -566 -975q-424 -543 -911 -559q-41 -2 -74 2t-61 14q623 233 1118 1262 q43 92 94 192.5t115 212.5q4 16 18 35q90 0 177.5 -5.5t175.5 -17.5zM1784 1759q-588 -217 -989 -1016l-19 -36q-92 16 -177 23t-167 9q203 346 369 553q377 467 846 484q76 1 137 -17zM2503 1475q4 -72 -26 -129.5t-87 -102.5q-53 -41 -115.5 -63.5t-140.5 -24.5 q-102 -6 -184 37q139 106 123 289q-6 90 -39 156.5t-97 107.5q41 14 95.5 20.5t119.5 10.5q341 8 351 -301zM-1098 -1001q-43 -16 -98 -23.5t-123 -11.5q-145 -4 -242 73q-100 82 -104 228q-4 70 25.5 127t87.5 104q53 41 115.5 63.5t136.5 24.5q115 6 194 -37 q-139 -115 -129 -288q10 -174 137 -260zM1993 1475q6 -143 -111 -232l-6 -6q-35 49 -78 89t-96 75q-119 76 -221 76q92 88 188 149.5t199 95.5q121 -75 125 -247zM-651 -737q-184 -172 -379 -240q-123 84 -129 242q-2 143 117 231q12 -14 32.5 -36.5t51.5 -55.5 q18 -14 18 -20v8q150 -129 289 -129zM-473 -557q-31 -35 -58.5 -64.5t-56.5 -58.5q-41 -12 -82 -12q-98 0 -194 78q-10 6 -39 35.5t-78 82.5q-14 20 -14 23q43 25 93 40t109 17q209 6 320 -141zM1837 1210q-74 -51 -209 -55q-190 -10 -317 141q51 68 110 123q43 12 78 13 q106 0 191 -72q6 -6 42.5 -43t104.5 -107z" />
<glyph unicode="i" horiz-adv-x="393" d="M438 315q0 16 -18 17q-8 0 -19 -10q-197 -307 -307 -308q-18 0 -37 25q-18 45 23 151q66 186 211 414q-8 31 -64 68q-53 37 -86 37q-14 0 -10 -7q8 -25 10 -47t2 -45q0 -35 -11 -68.5t-34 -62.5q-41 -59 -63.5 -93t-28.5 -46q-55 -115 -55 -197q0 -162 141 -161 q82 0 197 122q47 47 80.5 97.5t60.5 101.5q8 6 8 12z" />
<glyph unicode="k" d="M641 291l-20 16q-27 -129 -66 -196.5t-98 -77.5q-84 -12 -187 47q-117 63 -116 143q0 61 88 115q362 113 362 240q0 57 -63 88q-27 16 -54.5 23t-56.5 7q-57 0 -115 -28q90 164 178.5 300t176.5 249q436 553 909 559q150 2 245 -75t101 -226q4 -72 -25.5 -129.5 t-87.5 -102.5q-53 -41 -115.5 -63.5t-135.5 -24.5q-199 -14 -336 162q-10 14 -16.5 23.5t-10.5 17.5q29 -246 363 -264q176 -10 309 98q145 115 133 289q-18 340 -453 340q-807 0 -1462 -1323q-104 -209 -104 -336q0 -145 159 -148q-27 2 -45 29q-39 41 -10 156 q25 -63 111 -125q113 -84 215 -84q111 0 164 102q14 27 63 199zM223 492q4 10 10.5 17t12.5 15q86 121 166 121q68 0 67 -59q0 -111 -323 -228q16 35 33.5 68t33.5 66z" />
<glyph unicode="l" d="M641 291l-20 16q-51 -287 -164 -274q-154 25 -154 135q0 74 78 170q61 102 93 173t32 116q0 70 -76 69q-57 0 -115 -28q90 164 178.5 300t176.5 249q436 553 909 559q150 2 245 -75t101 -226q4 -72 -25.5 -129.5t-87.5 -102.5q-53 -41 -115.5 -63.5t-135.5 -24.5 q-199 -14 -336 162q-10 14 -16.5 23.5t-10.5 17.5q29 -246 363 -264q176 -10 309 98q145 115 133 289q-18 340 -453 340q-807 0 -1462 -1323q-104 -209 -104 -336q0 -145 159 -148q-27 2 -45 29q-43 49 2 199q31 66 62 128l61 122q4 10 10.5 17t12.5 15q86 121 166 121 q27 0 26 -18q0 -20 -61 -109q-131 -186 -131 -270q0 -86 55 -166q55 -86 143 -86q102 0 146 102q10 47 23.5 96.5t27.5 96.5z" />
<glyph unicode="m" d="M1864 1481q-18 340 -451 340q-807 0 -1462 -1323q-53 -104 -79 -193.5t-26 -161.5q0 -147 156 -153q-63 10 -57 110q41 182 112 277q53 74 166 164q133 100 195 100q33 0 33 -25q0 -31 -43 -94q-59 -66 -112.5 -120t-102.5 -99q-16 -29 -26.5 -49.5t-12.5 -36.5v-37 q0 -6 11 -35.5t34 -76.5q43 -90 157 -91q141 0 332 295q10 18 -10 35q-14 14 -27 -6q-195 -279 -301 -268q-23 0 -57.5 23.5t-44.5 41.5l-45 82q-14 72 51 115q287 166 287 291q0 92 -111 92q-41 0 -92 -20.5t-115 -65.5q-43 -29 -82 -61.5t-67 -67.5q135 260 266 466 t256 363q371 467 842 484q160 4 245 -68q98 -82 105 -233q2 -141 -115 -232q-106 -86 -254 -88q-199 -8 -332 162q-10 14 -17 23.5t-11 17.5q27 -246 360 -264q178 -10 314 98q145 117 131 289z" />
<glyph unicode="o" horiz-adv-x="651" d="M614 512q0 184 -151 184q-111 0 -240 -125q-197 -195 -196 -409q0 -184 151 -185q121 0 242 127q194 199 194 408zM506 555q0 -90 -55 -227q-115 -295 -254 -295q-72 0 -72 102q0 94 39 191.5t115 201.5q92 117 165 117q62 0 62 -90z" />
<glyph unicode="q" horiz-adv-x="724" d="M797 119l-37 10l-238 -219q-121 -111 -196 -248q-37 -74 -37 -188q0 -43 9 -108.5t28 -151.5q37 -176 36 -265q0 -150 -147 -139q-223 18 -223 158q0 39 16.5 95t50.5 128l439 1002q117 156 116 319q0 184 -149 184q-115 0 -240 -125q-197 -190 -196 -409 q0 -184 149 -185q72 0 144 43l-367 -829q-55 -104 -55 -186q0 -121 112 -179q47 -27 102.5 -38t123.5 -11q190 0 190 191q0 74 -29 229q-10 78 -17 134.5t-7 97.5q0 115 41 190q102 203 381 500zM508 555q0 -90 -55 -227q-117 -295 -256 -295q-70 0 -70 102q0 184 154 393 q88 117 165 117q62 0 62 -90z" />
<glyph unicode="t" horiz-adv-x="425" d="M2001 1481q-25 340 -453 340q-729 0 -1333 -1078q-78 2 -111 0q-135 -25 -135 -133q0 -41 31 -67q41 113 170 116q-188 -350 -188 -497q0 -145 157 -148q-29 4 -47 29q-41 51 4 199q53 111 105.5 212t105.5 197q37 0 47 -4q55 -4 99 0q135 25 135 123q0 39 -35 84 q-23 -104 -119 -117q-47 -6 -80 -4q90 156 182.5 295t192.5 264q379 477 844 484q156 2 250 -75t98 -226q2 -143 -111 -232q-53 -41 -115.5 -63.5t-140.5 -24.5q-201 -10 -333 162q-4 4 -11.5 14t-13.5 27q27 -244 358 -264q188 -14 318 92q141 111 129 295z" />
<glyph unicode="u" horiz-adv-x="1228" d="M358 209q-2 -16 -2 -33v-33q0 -147 154 -153q-61 10 -59 110q61 268 129 363l24 49q100 147 189 147q63 0 63 -94q0 -76 -55 -213q-55 -133 -56 -205q0 -41 19 -84q43 -86 123 -86q139 0 330 295q8 16 -7 35q-14 12 -28 -6q-53 -78 -88 -124t-54 -64q-98 -98 -149 -99 q-43 0 -43 62q0 92 76 276q37 92 37 176q0 180 -150 181q-55 0 -111 -27q29 51 56.5 98t56.5 94q260 176 676 250l618 111q266 74 267 246q-2 340 -455 340q-322 0 -621 -211q-211 -12 -382 -73.5t-302 -176.5q-102 -90 -218.5 -251t-252.5 -400q-39 4 -64.5 2t-41.5 -4 q-135 -18 -135 -129q0 -41 26 -68q45 113 170 113q-188 -350 -188 -494q0 -113 84 -141q16 -8 38.5 -10.5t55.5 -2.5q112 1 270 234zM1438 1612q242 158 510 164q74 2 135 -14.5t112 -57.5q115 -84 99 -229q-12 -133 -279 -191l-577 -115q-367 -74 -590 -241 q150 242 290 406.5t271 258.5q88 4 202.5 -3t256.5 -17q-121 16 -228.5 26.5t-201.5 12.5zM659 1260q68 80 133.5 139t131.5 96q135 74 344 92q-428 -326 -811 -1089q-23 -49 -41.5 -91t-28.5 -79l-4 -2q-184 -311 -297 -312q-80 0 -80 66q0 39 4 70.5t10 60.5 q72 139 125.5 239.5t90.5 165.5l47 -2q14 -4 22 -4h14q199 -10 199 123q0 43 -33 86q-25 -102 -120 -117q-23 -2 -43.5 -4t-38.5 2q88 154 181 292.5t195 267.5z" />
<glyph unicode="&#xb6;" horiz-adv-x="2822" d="M1192 217q0 -14 -62 -80q6 -6 7 -33q-41 2 -60 -6q4 -4 4 -41q-2 8 -10 13q-6 -10 -10 -21.5t-8 -17.5q-10 12 -19 12q-8 0 -18 -10q6 -12 6 -27q0 -20 -8 -37q-35 0 -41 -10q6 -39 -12 -63q-12 0 -33 20q-37 -53 -56 -61q2 4 4.5 5t2.5 5q0 8 -13 18q-16 -16 -24 -18 q0 10 -2 18t-4 13q-16 -10 -25 -11v99q10 12 21.5 19t17.5 11q-14 14 -20.5 22.5t-10.5 12.5q37 33 60 33l2 86q-10 8 -17.5 15t-7.5 24q0 -8 12 -10q10 10 11 14q0 10 -13 16q12 8 13 31q0 14 -5 25q8 14 15.5 24t13.5 19l-4 20q-4 18 25 31q-14 12 -20.5 21.5t-10.5 13.5 q39 16 49 26q-27 8 -27 29q0 16 21 49q8 0 18 -12q0 68 13 96q-47 -35 -84 -54.5t-60 -27.5q-16 -2 -51 -4t-90 -2q-348 -4 -594 -369q-39 -76 -64.5 -133t-41.5 -96q-29 -35 -51.5 -60.5t-41.5 -48.5q18 -4 25 0q53 84 89 143.5t58 94.5q205 362 433 418q217 31 329 37 q29 6 54.5 14t46.5 16q0 -2 -7.5 -12t-14.5 -23.5t-14 -25.5t-7 -18q0 -12 16 -13q-18 -49 -30.5 -87t-18.5 -66q2 -10 2 -19q0 -6 4 -10q-16 -18 -23 -18q-2 -82 0 -123q0 -10 -7 -27.5t-15 -37t-15.5 -39t-7.5 -34.5q0 2 19 -98q31 -43 63 -43l123 64q6 25 6 41 q25 12 37 12q8 14 10.5 27.5t6.5 23.5q14 10 24 14t21 9l16 49q29 29 51.5 51t34.5 41q2 -4 2 -29q-2 6 -37 -131q-8 -123 -30 -145v-39q12 14 22 46t21 79q12 49 19 76.5t15 33.5q2 55 13 68q39 -90 67 -131q0 -43 21 -86q25 -53 59 -53q23 0 45 34v95q0 41 4 71l13 13 q0 37 -13.5 90t-40.5 125q88 37 191 36q41 0 73.5 -7t59.5 -17q45 -43 74 -74q88 -68 147 -67q43 0 166 88q76 55 76 77v0q0 2 -2 5q12 -4 24.5 -9.5t18.5 -5.5q20 0 50 18.5t30 37.5q4 51 -11 84q27 29 43 38q8 31 10.5 55.5t6.5 41.5q23 33 43 49q78 -61 119 -72 q6 -2 73 -2q195 0 195 148q0 129 -201 208q-35 10 -98.5 17.5t-159.5 7.5q-23 86 -39 119q-6 4 8 18q23 -20 38.5 -36.5t29.5 -26.5l90 14q-45 33 -68 105q-23 84 -36 104q-10 16 -25.5 23.5t-36.5 11.5q-82 248 -381 248q-250 0 -403 -111q-193 -145 -246 -313 q-29 31 -63 30q-16 -12 -23 -12q0 -10 5 -28.5t10 -40t10.5 -40t5.5 -28.5q0 -4 -7.5 -16.5t-14.5 -25.5t-14 -25.5t-7 -18.5q0 -45 53 -109l82 -94q-66 -55 -88 -55q-14 0 -23 12l-6 12q-10 2 -35 2h-69q-6 0 -82 -51q0 -39 18 -71q4 14 6 28.5t6 30.5q12 45 39 45l111 -27 q-16 0 -37.5 3.5t-38.5 3.5q-41 -76 -41 -115q0 -111 111 -230q47 -53 47 -59zM2746 707q0 -139 -184 -140q-12 0 -41 11.5t-76 31.5q-61 27 -61 37l4 4q-20 -2 -55 -6t-54 -4q-4 0 -15 7t-24.5 14.5t-25.5 14.5t-19 7v47q41 14 70 22.5t45 10.5q-16 10 -47 10 q-78 0 -240 -160q-76 -55 -229 -96q2 4 4 9t2 10q-4 12 -10 12l-31 -27v-28q6 -4 25 -19q8 -12 18 -12q0 10 -4 23.5t-4 17.5q168 4 254 94q-4 -33 29 -70q16 14 25 23.5t14 13.5v13h-27q-18 -18 -29 -19q-2 16 -4 27.5t-4 15.5q49 49 76 49q18 0 50 -6t48 -6q0 -29 -14 -29 q-29 0 -6 -14q4 -10 24 -10q2 4 2 8t4 10q2 6 19 6q18 0 24 -18q-27 0 -18 -27q10 -16 14 -16q6 6 6 29q18 -18 19 -41q0 -61 -74 -62q-88 0 -229 74q-18 -23 -19 -45q0 -14 9 -29q4 0 14 15.5t20 15.5q16 0 46 -8.5t73 -24.5q47 -16 77 -28.5t40 -24.5v-68q-25 -25 -51 -24 q-33 0 -68 41q-23 25 -35 38t-14 17q-8 -4 -16.5 -8t-12.5 -10q4 -16 7.5 -28.5t3.5 -25.5q0 -27 -17 -43q-6 23 -12 38t-8 28q-4 -4 -8.5 -5t-8.5 -5v-37q0 -39 -30 -56q31 -4 73 29v-37q-4 -16 -19.5 -31.5t-34.5 -29t-39.5 -21.5t-35.5 -8q-84 0 -166 98 q-55 68 -87.5 106t-43.5 46q-14 -16 -37.5 -28.5t-58.5 -24.5q-16 -6 -42 -13.5t-64 -13.5q16 29 28.5 48.5t22.5 33.5q-18 0 -80 -61q-31 -37 -45 -37q-16 0 -78 73q-2 -2 -4 -2h-2v-16q0 -14 61 -82q-55 0 -116 -65q-150 119 -150 258q0 31 2 53t10 39q63 8 185 55 q29 41 49 41q6 0 22.5 -7t38.5 -18q49 -25 58 -24q10 0 17 9t13 9q20 0 99 -37q-4 -10 4 -18t21.5 -14.5t28.5 -10.5t25 -4q39 0 68 47h-12q-20 -12 -32.5 -17t-18.5 -7q-10 0 -26.5 6t-23.5 6q-6 45 -92 156q-86 104 -86 162q4 -4 37 167q0 -61 2 -65q12 0 37 15.5t35 15.5 l18 -21q25 -31 42.5 -50t27.5 -30q0 -43 -82 -98q45 -27 55 -61q2 -8 4 -29t4 -55q18 -14 35 -23.5t27 -15.5q25 31 39 48t18 21l-16 13q-23 -20 -36 -32.5t-19 -17.5q-14 0 -29 13q6 18 6 37q-2 4 -11 32.5t-28 81.5q12 8 33 45l12 -8q12 -12 25 -12q2 0 24 14v62 q-2 4 -13 27.5t-32 68.5q45 -27 62 -102q2 -6 5 -37t9 -88l74 -86q45 -59 80 -60q18 0 30 19q-92 246 -92 286v119q23 -4 36 -6t24 -6q29 -72 42 -111t15 -43q53 -106 203 -106q-2 0 -2 -6v-17h-105q-41 0 -98 55q-49 39 -68 66q-6 -6 -6 -22q0 -49 107 -93q80 -31 121 -30 q57 0 63 6q31 51 46 78.5t20 31.5q31 -8 94 0q29 4 47 5.5t31 5.5q129 0 235 -48q139 -54 139 -167zM2238 1303q0 -16 -14 -31q-12 0 -31.5 -7.5t-48.5 -17.5q-61 -25 -80 -24h-30q-18 39 -47 39q-51 0 -64 -80q-72 -25 -125 -43.5t-88 -30.5q23 14 23 41q0 61 -60 61 q-25 0 -41 -28.5t-16 -55.5q-57 23 -90 23q-61 0 -82 -31q-18 61 -60 62q-6 0 -21 -9.5t-36 -27.5v-41q39 -37 57 -37q20 0 31 10q0 -31 -8 -31q-29 0 -60.5 -3t-72.5 -7q0 10 -4 27.5t-4 28.5q0 12 7 36.5t23 61.5q37 84 68 84q6 0 20.5 -5t24.5 -5q61 0 61 61q0 14 -18 37 q170 115 215 104q-12 -12 -12 -39q0 -72 59 -71q57 0 58 67q0 33 -33 62q104 29 131 28q31 0 153 -36q10 -47 54 -48q10 0 24.5 5.5t20.5 5.5q20 0 67 -56q27 -29 38 -49t11 -30zM1563 653q-18 -12 -25 -12l-2 10q-35 8 -29 15q-6 8 -13 13t-13 9l-4 14q-8 -8 -37 -8 q0 -23 -15 -43q0 18 -10 19q-47 0 -76.5 35.5t-29.5 80.5l-25.5 -17t-23.5 -26q-86 84 -86 156v19q78 90 98 92q39 8 69.5 10t55.5 2v-184zM2386 1026q-2 0 -18.5 9t-26.5 9q-4 0 -16.5 9.5t-25.5 21.5t-25.5 21.5t-16.5 9.5q-8 0 -8 -12t6 -31q-4 2 -12 2h-48q-6 0 -18 10 t-25.5 23.5t-25.5 25t-17 15.5q-20 -20 -49 -21q-10 0 -22.5 4t-22.5 4q-47 18 -73 17q-10 4 -16.5 6t-8.5 6h10t17 2h28q25 0 25 12q70 29 123 29v8q-8 12 39 13q10 0 12 6t12 6t35 15.5t37 15.5q18 0 39.5 -19.5t23.5 -38.5q2 -8 7.5 -24.5t10.5 -35t9 -35.5t4 -28v-10 l6 6q13 0 31 -51zM1397 -115q-10 0 -25.5 -6t-23.5 -6q0 4 -7.5 15.5t-14.5 23.5t-14 23.5t-7 17.5q0 12 8 18t4 11q0 6 -5 14t-10.5 16t-10.5 14l-5 7h-12q6 8 6 16q0 20 -25 37v76q57 -8 80 80q-4 6 -12 0q-10 -4 -38 -8.5t-50 -4.5q84 59 106 60q16 0 23 -29 q23 -53 27 -45q-12 -35 -9 -43l7 -4q8 -2 8 -18v-265zM2134 967q-51 -23 -51 -64q0 -10 18 -31h-55q-20 0 -42 16.5t-39 39t-28.5 49.5t-11.5 45q0 12 7 30.5t18 43.5q118 -78 184 -129zM2267 967q0 -20 -24 -45q-16 10 -56.5 38.5t-107.5 79.5q-92 72 -137 84l36 2 q6 0 17.5 -5t25 -10t24.5 -10t15 -5q10 0 18.5 5t18.5 5q16 0 68 -35q78 -49 90 -51q12 -43 12 -53zM1855 750q-12 -8 -19 -10.5t-11 -6.5q2 14 -31 49q-29 31 -42 48.5t-17 19.5q4 23 5 37t5 24q-18 96 -66 148q53 29 56 28q25 0 43 19q-2 -18 -2 -37v-37q-1 -178 79 -282z M1628 1262v49q-45 35 -59 35q-20 0 -56 -35v-49q37 -31 56 -31q22 0 59 31zM2165 1296v50q-41 31 -56 30q-27 0 -57 -35v-49q37 -31 57 -30q17 -1 56 34zM1978 1378v49q-39 31 -55 31q-20 0 -59 -33v-49q39 -31 59 -30q16 -1 55 32zM1876 1262v49q-47 35 -57 35 q-25 0 -56 -35v-49q37 -31 56 -31q20 0 57 31zM1741 -166q8 59 -12.5 124t-63.5 136q-74 117 -188 207q-12 -16 -25 -16q102 -66 161.5 -137.5t82.5 -145.5l8 -33q25 -80 37 -135zM1253 1047q-23 0 -34 -13q-16 0 -32 12.5t-26 36.5q6 -6 56 -26q12 8 6 14q-1 7 30 -24z M1597 1096q-74 29 -104 28l12 6q6 2 11.5 4.5t9.5 2.5q22 0 71 -41zM2175 518q0 12 -37 49q-4 -10 -6 -16t-6 -10q2 0 19.5 -11.5t29.5 -11.5zM1985 291l-17 47h-14l12 -47h19zM1741 567l-6 17l-37 -19l6 -16zM2071 899l-35 25l-8 -13l32 -26zM2175 918q-18 -14 -37 -15v37 q21 -22 37 -22zM1935 639h-41q6 -18 17 -29q10 12 15 18.5t9 10.5zM1905 657q-18 12 -29 13q0 -10 -6 -20.5t-6 -14.5zM1931 242l-18 6l-8 -39h12zM1794 690l-25 25l-12 -8l27 -29zM1819 412q-16 -20 -17 -29q35 0 39 -2q-20 23 -22 31zM1905 1133h-29v18h29v-18zM2257 541 l-25 20q-2 4 -2 -33q17 3 27 13zM1020 6l-16 6l-13 -30h17zM1862 309q-8 -8 -19 -8q-8 0 -12 2q16 -14 27.5 -23.5t15.5 -17.5q-12 27 -12 47zM2017 236v12l-24 16l-6 -18zM1790 578v12l-25 14l-6 -18zM2187 598l-6 16l-24 -16l2 -12zM967 -80v27h-15v-27h15zM1806 350 q-8 -12 -10 -19t-6 -16q14 -12 10 -24q2 4 2 37q0 18 10 18q-4 4 -6 4zM2071 940q-4 6 -6.5 11t-4.5 10v-3q0 -10 -10 -10q13 -4 21 -8zM2349 1071l-8 -6q0 -2 2 -2q6 0 6 8zM905 328l-2 -2v-2q2 0 2 4zM2058 967q0 -2 1 -3t1 -3q-2 2 -2 6zM1817 344q-2 0 -5 2q2 0 3 -2h2z " />
<glyph unicode="&#x2000;" horiz-adv-x="925" />
<glyph unicode="&#x2001;" horiz-adv-x="1851" />
<glyph unicode="&#x2002;" horiz-adv-x="925" />
<glyph unicode="&#x2003;" horiz-adv-x="1851" />
<glyph unicode="&#x2004;" horiz-adv-x="617" />
<glyph unicode="&#x2005;" horiz-adv-x="462" />
<glyph unicode="&#x2006;" horiz-adv-x="308" />
<glyph unicode="&#x2007;" horiz-adv-x="308" />
<glyph unicode="&#x2008;" horiz-adv-x="231" />
<glyph unicode="&#x2009;" horiz-adv-x="370" />
<glyph unicode="&#x200a;" horiz-adv-x="102" />
<glyph unicode="&#x202f;" horiz-adv-x="370" />
<glyph unicode="&#x205f;" horiz-adv-x="462" />
<glyph unicode="&#x25fc;" horiz-adv-x="1024" d="M0 0v0v0v0v0z" />
</font>
</defs>
</svg>
