<svg xmlns="http://www.w3.org/2000/svg" xmlns:xlink="http://www.w3.org/1999/xlink" viewBox="0 0 438.63 334.04"><defs><linearGradient id="a" x1="323.37" y1="390.73" x2="367.01" y2="449.88" gradientTransform="matrix(1, 0, 0, -1, 0, 394.6)" gradientUnits="userSpaceOnUse"><stop offset="0" stop-color="#5c81bd"/><stop offset="0.39" stop-color="#8db8f7"/><stop offset="0.54" stop-color="#c3dafa"/><stop offset="1" stop-color="#e4eefb"/></linearGradient><linearGradient id="b" x1="280.26" y1="352.55" x2="447.51" y2="530.41" gradientTransform="matrix(1, 0, 0, -1, 0, 394.6)" gradientUnits="userSpaceOnUse"><stop offset="0" stop-color="#94b6fb"/><stop offset="1" stop-color="#c9dbfc"/></linearGradient><linearGradient id="c" x1="332.04" y1="356.1" x2="428.76" y2="618.84" gradientTransform="matrix(1, 0, 0, -1, 0, 394.6)" gradientUnits="userSpaceOnUse"><stop offset="0.05" stop-color="#132858"/><stop offset="1" stop-color="#5073af"/></linearGradient><linearGradient id="d" x1="560.2" y1="339.6" x2="283.16" y2="316.92" gradientTransform="matrix(1, 0, 0, -1, 0, 394.6)" gradientUnits="userSpaceOnUse"><stop offset="0" stop-color="#c1d5fb"/><stop offset="0.63" stop-color="#b0cafa"/><stop offset="0.68" stop-color="#9fbdf4"/><stop offset="1" stop-color="#7ea6e8"/></linearGradient><linearGradient id="e" x1="148.59" y1="60.42" x2="494.59" y2="410.32" gradientTransform="matrix(1, 0, 0, -1, 0, 394.6)" gradientUnits="userSpaceOnUse"><stop offset="0" stop-color="#8db8f7"/><stop offset="1" stop-color="#e3eefd"/></linearGradient><linearGradient id="f" x1="403.21" y1="333.71" x2="398.97" y2="363.91" gradientTransform="matrix(1, 0, 0, -1, 0, 394.6)" gradientUnits="userSpaceOnUse"><stop offset="0.25" stop-color="#e3eefd"/><stop offset="0.34" stop-color="#8db8f7"/></linearGradient><linearGradient id="g" x1="503.48" y1="439.31" x2="199.17" y2="154.17" gradientTransform="matrix(1, 0, 0, -1, 0, 394.6)" gradientUnits="userSpaceOnUse"><stop offset="0" stop-color="#e3eefd"/><stop offset="1" stop-color="#8db8f7"/></linearGradient><linearGradient id="h" x1="353.73" y1="303.62" x2="537.13" y2="477.09" gradientTransform="matrix(1, 0, 0, -1, 0, 394.6)" gradientUnits="userSpaceOnUse"><stop offset="0" stop-color="#1b243e"/><stop offset="1" stop-color="#143068"/></linearGradient><linearGradient id="i" x1="372.55" y1="283.72" x2="555.95" y2="457.18" xlink:href="#h"/><linearGradient id="j" x1="361.23" y1="295.69" x2="544.63" y2="469.16" xlink:href="#h"/><linearGradient id="k" x1="378.09" y1="277.86" x2="561.49" y2="451.33" xlink:href="#h"/><linearGradient id="l" x1="355.23" y1="302.03" x2="538.63" y2="475.5" xlink:href="#h"/><linearGradient id="m" x1="374.1" y1="282.08" x2="557.5" y2="455.55" xlink:href="#h"/><linearGradient id="n" x1="352.3" y1="305.13" x2="535.7" y2="478.6" xlink:href="#h"/><linearGradient id="o" x1="384.06" y1="271.55" x2="567.46" y2="445.02" xlink:href="#h"/><linearGradient id="p" x1="371.05" y1="285.31" x2="554.45" y2="458.78" xlink:href="#h"/><linearGradient id="q" x1="341.36" y1="316.7" x2="524.76" y2="490.17" xlink:href="#h"/><linearGradient id="r" x1="360.56" y1="296.4" x2="543.96" y2="469.87" xlink:href="#h"/><linearGradient id="s" x1="349.31" y1="308.29" x2="532.71" y2="481.76" xlink:href="#h"/><linearGradient id="t" x1="379.19" y1="276.7" x2="562.6" y2="450.16" xlink:href="#h"/><linearGradient id="u" x1="390.4" y1="264.85" x2="573.8" y2="438.31" xlink:href="#h"/><linearGradient id="v" x1="346.3" y1="311.48" x2="529.7" y2="484.94" xlink:href="#h"/><linearGradient id="w" x1="376.28" y1="279.77" x2="559.69" y2="453.24" xlink:href="#h"/><linearGradient id="x" x1="354.61" y1="302.68" x2="538.02" y2="476.15" xlink:href="#h"/><linearGradient id="y" x1="373.22" y1="283.02" x2="556.62" y2="456.48" xlink:href="#h"/><linearGradient id="z" x1="362.18" y1="294.68" x2="545.59" y2="468.15" xlink:href="#h"/><linearGradient id="aa" x1="370.29" y1="286.11" x2="553.69" y2="459.58" xlink:href="#h"/><linearGradient id="ab" x1="348.76" y1="308.87" x2="532.17" y2="482.34" xlink:href="#h"/><linearGradient id="ac" x1="337.39" y1="320.9" x2="520.79" y2="494.37" xlink:href="#h"/><linearGradient id="ad" x1="367.28" y1="289.29" x2="550.69" y2="462.76" xlink:href="#h"/><linearGradient id="ae" x1="356.27" y1="300.93" x2="539.68" y2="474.39" xlink:href="#h"/><linearGradient id="af" x1="334.4" y1="324.05" x2="517.81" y2="497.52" xlink:href="#h"/><linearGradient id="ag" x1="364.33" y1="292.41" x2="547.73" y2="465.88" xlink:href="#h"/><linearGradient id="ah" x1="322.85" y1="336.26" x2="506.25" y2="509.73" xlink:href="#h"/><linearGradient id="ai" x1="331.36" y1="327.27" x2="514.76" y2="500.73" xlink:href="#h"/><linearGradient id="aj" x1="328.46" y1="330.34" x2="511.86" y2="503.81" xlink:href="#h"/><linearGradient id="ak" x1="371.85" y1="284.46" x2="555.25" y2="457.93" xlink:href="#h"/><linearGradient id="al" x1="352.47" y1="304.95" x2="535.87" y2="478.42" xlink:href="#h"/><linearGradient id="am" x1="362.64" y1="294.2" x2="546.04" y2="467.66" xlink:href="#h"/><linearGradient id="an" x1="340.31" y1="317.81" x2="523.71" y2="491.27" xlink:href="#h"/><linearGradient id="ao" x1="356.23" y1="300.97" x2="539.63" y2="474.44" xlink:href="#h"/><linearGradient id="ap" x1="356.82" y1="300.35" x2="540.22" y2="473.82" xlink:href="#h"/><linearGradient id="aq" x1="364.89" y1="291.82" x2="548.29" y2="465.29" xlink:href="#h"/><linearGradient id="ar" x1="350.63" y1="306.89" x2="534.04" y2="480.36" xlink:href="#h"/><linearGradient id="as" x1="369.55" y1="286.89" x2="552.95" y2="460.36" xlink:href="#h"/><linearGradient id="at" x1="358.28" y1="298.81" x2="541.68" y2="472.27" xlink:href="#h"/><linearGradient id="au" x1="347.54" y1="310.16" x2="530.94" y2="483.63" xlink:href="#h"/><linearGradient id="av" x1="366.52" y1="290.1" x2="549.92" y2="463.56" xlink:href="#h"/><linearGradient id="aw" x1="344.45" y1="313.43" x2="527.85" y2="486.9" xlink:href="#h"/><linearGradient id="ax" x1="363.52" y1="293.27" x2="546.92" y2="466.73" xlink:href="#h"/><linearGradient id="ay" x1="395.03" y1="259.95" x2="578.43" y2="433.42" xlink:href="#h"/><linearGradient id="az" x1="338.25" y1="319.98" x2="521.65" y2="493.45" xlink:href="#h"/><linearGradient id="ba" x1="357.59" y1="299.54" x2="540.99" y2="473.01" xlink:href="#h"/><linearGradient id="bb" x1="389.09" y1="266.24" x2="572.49" y2="439.7" xlink:href="#h"/><linearGradient id="bc" x1="365.14" y1="291.56" x2="548.54" y2="465.02" xlink:href="#h"/><linearGradient id="bd" x1="335.22" y1="323.19" x2="518.62" y2="496.65" xlink:href="#h"/><linearGradient id="be" x1="343.27" y1="314.67" x2="526.68" y2="488.14" xlink:href="#h"/><linearGradient id="bf" x1="384.48" y1="271.1" x2="567.89" y2="444.57" xlink:href="#h"/><linearGradient id="bg" x1="351.67" y1="305.79" x2="535.07" y2="479.26" xlink:href="#h"/><linearGradient id="bh" x1="332.08" y1="326.51" x2="515.48" y2="499.98" xlink:href="#h"/><linearGradient id="bi" x1="359.23" y1="297.8" x2="542.63" y2="471.27" xlink:href="#h"/><linearGradient id="bj" x1="329.01" y1="329.75" x2="512.42" y2="503.22" xlink:href="#h"/><linearGradient id="bk" x1="345.73" y1="312.08" x2="529.13" y2="485.54" xlink:href="#h"/><linearGradient id="bl" x1="325.95" y1="332.99" x2="509.35" y2="506.46" xlink:href="#h"/><linearGradient id="bm" x1="353.32" y1="304.05" x2="536.72" y2="477.52" xlink:href="#h"/><linearGradient id="bn" x1="361.41" y1="295.5" x2="544.81" y2="468.97" xlink:href="#h"/><linearGradient id="bo" x1="350.37" y1="307.17" x2="533.77" y2="480.64" xlink:href="#h"/><linearGradient id="bp" x1="319.76" y1="339.53" x2="503.16" y2="513" xlink:href="#h"/><linearGradient id="bq" x1="347.34" y1="310.38" x2="530.74" y2="483.84" xlink:href="#h"/><linearGradient id="br" x1="336.81" y1="321.5" x2="520.22" y2="494.97" xlink:href="#h"/><linearGradient id="bs" x1="355.42" y1="301.83" x2="538.82" y2="475.3" xlink:href="#h"/><linearGradient id="bt" x1="344.4" y1="313.48" x2="527.81" y2="486.94" xlink:href="#h"/><linearGradient id="bu" x1="333.02" y1="325.52" x2="516.42" y2="498.99" xlink:href="#h"/><linearGradient id="bv" x1="359.26" y1="297.78" x2="542.66" y2="471.24" xlink:href="#h"/><linearGradient id="bw" x1="368.09" y1="288.43" x2="551.49" y2="461.9" xlink:href="#h"/><linearGradient id="bx" x1="381.15" y1="274.63" x2="564.55" y2="448.1" xlink:href="#h"/><linearGradient id="by" x1="359.91" y1="297.09" x2="543.31" y2="470.55" xlink:href="#h"/><linearGradient id="bz" x1="340.36" y1="317.75" x2="523.77" y2="491.22" xlink:href="#h"/><linearGradient id="ca" x1="342.75" y1="315.22" x2="526.15" y2="488.69" xlink:href="#h"/><linearGradient id="cb" x1="339.76" y1="318.39" x2="523.16" y2="491.86" xlink:href="#h"/><linearGradient id="cc" x1="358.37" y1="298.71" x2="541.77" y2="472.18" xlink:href="#h"/><linearGradient id="cd" x1="325.47" y1="333.5" x2="508.87" y2="506.96" xlink:href="#h"/><linearGradient id="ce" x1="347.62" y1="310.08" x2="531.02" y2="483.55" xlink:href="#h"/><linearGradient id="cf" x1="353.24" y1="304.13" x2="536.65" y2="477.6" xlink:href="#h"/><linearGradient id="cg" x1="375.14" y1="335.69" x2="393.83" y2="284.35" gradientTransform="matrix(1, 0, 0, -1, 0, 394.6)" gradientUnits="userSpaceOnUse"><stop offset="0" stop-color="#132858" stop-opacity="0.7"/><stop offset="1" stop-color="#5073af" stop-opacity="0.22"/></linearGradient><linearGradient id="ch" x1="364.56" y1="344.14" x2="369.83" y2="286.73" gradientTransform="matrix(1, 0, 0, -1, 0, 394.6)" gradientUnits="userSpaceOnUse"><stop offset="0" stop-color="#fc5880" stop-opacity="0.57"/><stop offset="1" stop-color="#fff" stop-opacity="0.55"/></linearGradient><linearGradient id="ci" x1="353.72" y1="304.12" x2="537.12" y2="477.58" gradientTransform="matrix(1, 0, 0, -1, 0, 394.6)" gradientUnits="userSpaceOnUse"><stop offset="0" stop-color="#253e71"/><stop offset="1" stop-color="#587cb9"/></linearGradient><linearGradient id="cj" x1="372.6" y1="284.16" x2="556" y2="457.63" xlink:href="#ci"/><linearGradient id="ck" x1="361.22" y1="296.19" x2="544.62" y2="469.65" xlink:href="#ci"/><linearGradient id="cl" x1="378.09" y1="278.36" x2="561.49" y2="451.82" xlink:href="#ci"/><linearGradient id="cm" x1="355.27" y1="302.48" x2="538.68" y2="475.94" xlink:href="#ci"/><linearGradient id="cn" x1="374.09" y1="282.58" x2="557.49" y2="456.05" xlink:href="#ci"/><linearGradient id="co" x1="352.34" y1="305.57" x2="535.74" y2="479.04" xlink:href="#ci"/><linearGradient id="cp" x1="384.08" y1="272.02" x2="567.48" y2="445.49" xlink:href="#ci"/><linearGradient id="cq" x1="371.04" y1="285.8" x2="554.44" y2="459.27" xlink:href="#ci"/><linearGradient id="cr" x1="341.35" y1="317.19" x2="524.75" y2="490.66" xlink:href="#ci"/><linearGradient id="cs" x1="360.55" y1="296.89" x2="543.95" y2="470.36" xlink:href="#ci"/><linearGradient id="ct" x1="349.31" y1="308.79" x2="532.71" y2="482.25" xlink:href="#ci"/><linearGradient id="cu" x1="379.19" y1="277.19" x2="562.59" y2="450.66" xlink:href="#ci"/><linearGradient id="cv" x1="390.4" y1="265.34" x2="573.8" y2="438.81" xlink:href="#ci"/><linearGradient id="cw" x1="346.29" y1="311.97" x2="529.69" y2="485.44" xlink:href="#ci"/><linearGradient id="cx" x1="376.28" y1="280.27" x2="559.68" y2="453.73" xlink:href="#ci"/><linearGradient id="cy" x1="354.61" y1="303.18" x2="538.01" y2="476.64" xlink:href="#ci"/><linearGradient id="cz" x1="373.21" y1="283.51" x2="556.61" y2="456.98" xlink:href="#ci"/><linearGradient id="da" x1="362.18" y1="295.18" x2="545.58" y2="468.64" xlink:href="#ci"/><linearGradient id="db" x1="370.28" y1="286.61" x2="553.68" y2="460.08" xlink:href="#ci"/><linearGradient id="dc" x1="348.76" y1="309.36" x2="532.16" y2="482.83" xlink:href="#ci"/><linearGradient id="dd" x1="337.38" y1="321.39" x2="520.78" y2="494.86" xlink:href="#ci"/><linearGradient id="de" x1="367.28" y1="289.78" x2="550.68" y2="463.25" xlink:href="#ci"/><linearGradient id="df" x1="356.27" y1="301.42" x2="539.67" y2="474.89" xlink:href="#ci"/><linearGradient id="dg" x1="334.4" y1="324.55" x2="517.8" y2="498.01" xlink:href="#ci"/><linearGradient id="dh" x1="364.32" y1="292.91" x2="547.73" y2="466.37" xlink:href="#ci"/><linearGradient id="di" x1="322.85" y1="336.76" x2="506.25" y2="510.23" xlink:href="#ci"/><linearGradient id="dj" x1="331.41" y1="327.71" x2="514.81" y2="501.18" xlink:href="#ci"/><linearGradient id="dk" x1="328.45" y1="330.83" x2="511.85" y2="504.3" xlink:href="#ci"/><linearGradient id="dl" x1="371.84" y1="284.96" x2="555.25" y2="458.42" xlink:href="#ci"/><linearGradient id="dm" x1="352.46" y1="305.45" x2="535.86" y2="478.92" xlink:href="#ci"/><linearGradient id="dn" x1="362.64" y1="294.69" x2="546.04" y2="468.16" xlink:href="#ci"/><linearGradient id="do" x1="340.28" y1="318.33" x2="523.68" y2="491.79" xlink:href="#ci"/><linearGradient id="dp" x1="356.28" y1="301.42" x2="539.68" y2="474.88" xlink:href="#ci"/><linearGradient id="dq" x1="356.81" y1="300.85" x2="540.21" y2="474.32" xlink:href="#ci"/><linearGradient id="dr" x1="364.88" y1="292.32" x2="548.28" y2="465.78" xlink:href="#ci"/><linearGradient id="ds" x1="350.63" y1="307.39" x2="534.03" y2="480.85" xlink:href="#ci"/><linearGradient id="dt" x1="369.55" y1="287.38" x2="552.95" y2="460.85" xlink:href="#ci"/><linearGradient id="du" x1="358.28" y1="299.3" x2="541.68" y2="472.77" xlink:href="#ci"/><linearGradient id="dv" x1="347.54" y1="310.66" x2="530.94" y2="484.12" xlink:href="#ci"/><linearGradient id="dw" x1="366.51" y1="290.59" x2="549.91" y2="464.05" xlink:href="#ci"/><linearGradient id="dx" x1="344.44" y1="313.92" x2="527.85" y2="487.39" xlink:href="#ci"/><linearGradient id="dy" x1="363.51" y1="293.76" x2="546.92" y2="467.23" xlink:href="#ci"/><linearGradient id="dz" x1="395.07" y1="260.4" x2="578.47" y2="433.86" xlink:href="#ci"/><linearGradient id="ea" x1="338.25" y1="320.48" x2="521.65" y2="493.94" xlink:href="#ci"/><linearGradient id="eb" x1="357.58" y1="300.03" x2="540.98" y2="473.5" xlink:href="#ci"/><linearGradient id="ec" x1="389.08" y1="266.73" x2="572.48" y2="440.2" xlink:href="#ci"/><linearGradient id="ed" x1="365.13" y1="292.05" x2="548.54" y2="465.52" xlink:href="#ci"/><linearGradient id="ee" x1="335.22" y1="323.68" x2="518.62" y2="497.15" xlink:href="#ci"/><linearGradient id="ef" x1="343.27" y1="315.17" x2="526.67" y2="488.64" xlink:href="#ci"/><linearGradient id="eg" x1="384.48" y1="271.6" x2="567.88" y2="445.06" xlink:href="#ci"/><linearGradient id="eh" x1="351.67" y1="306.29" x2="535.07" y2="479.76" xlink:href="#ci"/><linearGradient id="ei" x1="332.07" y1="327" x2="515.47" y2="500.47" xlink:href="#ci"/><linearGradient id="ej" x1="359.22" y1="298.3" x2="542.63" y2="471.76" xlink:href="#ci"/><linearGradient id="ek" x1="329.03" y1="330.22" x2="512.43" y2="503.69" xlink:href="#ci"/><linearGradient id="el" x1="345.72" y1="312.57" x2="529.13" y2="486.04" xlink:href="#ci"/><linearGradient id="em" x1="325.94" y1="333.49" x2="509.34" y2="506.95" xlink:href="#ci"/><linearGradient id="en" x1="353.32" y1="304.54" x2="536.72" y2="478.01" xlink:href="#ci"/><linearGradient id="eo" x1="361.4" y1="296" x2="544.8" y2="469.46" xlink:href="#ci"/><linearGradient id="ep" x1="350.36" y1="307.67" x2="533.76" y2="481.14" xlink:href="#ci"/><linearGradient id="eq" x1="319.76" y1="340.03" x2="503.16" y2="513.49" xlink:href="#ci"/><linearGradient id="er" x1="347.33" y1="310.87" x2="530.74" y2="484.34" xlink:href="#ci"/><linearGradient id="es" x1="336.81" y1="322" x2="520.21" y2="495.46" xlink:href="#ci"/><linearGradient id="et" x1="355.46" y1="302.27" x2="538.87" y2="475.74" xlink:href="#ci"/><linearGradient id="eu" x1="344.45" y1="313.92" x2="527.85" y2="487.39" xlink:href="#ci"/><linearGradient id="ev" x1="333.06" y1="325.96" x2="516.46" y2="499.43" xlink:href="#ci"/><linearGradient id="ew" x1="359.25" y1="298.27" x2="542.65" y2="471.74" xlink:href="#ci"/><linearGradient id="ex" x1="368.14" y1="288.88" x2="551.54" y2="462.34" xlink:href="#ci"/><linearGradient id="ey" x1="381.14" y1="275.13" x2="564.54" y2="448.59" xlink:href="#ci"/><linearGradient id="ez" x1="359.9" y1="297.58" x2="543.31" y2="471.05" xlink:href="#ci"/><linearGradient id="fa" x1="340.41" y1="318.19" x2="523.81" y2="491.66" xlink:href="#ci"/><linearGradient id="fb" x1="342.75" y1="315.72" x2="526.15" y2="489.19" xlink:href="#ci"/><linearGradient id="fc" x1="339.75" y1="318.89" x2="523.15" y2="492.35" xlink:href="#ci"/><linearGradient id="fd" x1="358.37" y1="299.21" x2="541.77" y2="472.67" xlink:href="#ci"/><linearGradient id="fe" x1="325.47" y1="333.99" x2="508.87" y2="507.46" xlink:href="#ci"/><linearGradient id="ff" x1="347.61" y1="310.58" x2="531.01" y2="484.04" xlink:href="#ci"/><linearGradient id="fg" x1="353.24" y1="304.63" x2="536.64" y2="478.09" xlink:href="#ci"/><linearGradient id="fh" x1="359.97" y1="440.65" x2="496.91" y2="535.98" gradientTransform="matrix(1, 0, 0, -1, -193.97, 557.32)" gradientUnits="userSpaceOnUse"><stop offset="0" stop-color="#fff" stop-opacity="0.3"/><stop offset="1" stop-color="#fff" stop-opacity="0"/></linearGradient><radialGradient id="fi" cx="387.03" cy="613.69" r="177.17" gradientTransform="matrix(0.94, -0.35, -0.53, -1.4, 144.08, 1164.63)" gradientUnits="userSpaceOnUse"><stop offset="0" stop-color="#fff"/><stop offset="0.84" stop-color="#fff" stop-opacity="0"/></radialGradient><linearGradient id="fj" x1="400.22" y1="461.51" x2="491.07" y2="406.92" gradientTransform="matrix(1, 0, 0, -1, -193.97, 557.32)" gradientUnits="userSpaceOnUse"><stop offset="0" stop-color="#fd759c"/><stop offset="0.12" stop-color="#fd87a9" stop-opacity="0.83"/><stop offset="0.76" stop-color="#fcc3d5" stop-opacity="0"/></linearGradient><clipPath id="fk" transform="translate(-193.97 162.72)"><polygon points="291.1 43.1 453.9 -20.9 453.9 -178.4 291.1 -114.4 291.1 43.1" style="fill:none"/></clipPath><linearGradient id="fl" x1="281.24" y1="499.63" x2="439.82" y2="499.63" gradientTransform="matrix(1, 0, 0, -1, 0, 394.6)" gradientUnits="userSpaceOnUse"><stop offset="0" stop-color="#fd9ab6"/><stop offset="1" stop-color="#fff"/></linearGradient><linearGradient id="fm" x1="364.4" y1="341.32" x2="364.4" y2="486.76" gradientTransform="matrix(1, 0, 0, -1, 0, 394.6)" gradientUnits="userSpaceOnUse"><stop offset="0" stop-color="#fc5880"/><stop offset="1" stop-color="#fd88a8"/></linearGradient><linearGradient id="fn" x1="281.24" y1="545.55" x2="439.82" y2="545.55" gradientTransform="matrix(1, 0, 0, -1, -193.97, 557.32)" xlink:href="#fl"/><linearGradient id="fo" x1="309.13" y1="367.05" x2="436.59" y2="522.43" gradientTransform="matrix(1, 0, 0, -1, 0, 394.6)" gradientUnits="userSpaceOnUse"><stop offset="0" stop-color="#fc7095"/><stop offset="1" stop-color="#fd7a9e"/></linearGradient><linearGradient id="fp" x1="148.7" y1="15.33" x2="429.1" y2="551.24" gradientTransform="matrix(1, 0, 0, -1, -193.97, 557.32)" gradientUnits="userSpaceOnUse"><stop offset="0" stop-color="#bac7db"/><stop offset="1" stop-color="#fff"/></linearGradient><linearGradient id="fq" x1="406.14" y1="581.82" x2="188.11" y2="182.19" gradientTransform="matrix(1, 0, 0, -1, 0, 394.6)" gradientUnits="userSpaceOnUse"><stop offset="0" stop-color="#fff"/><stop offset="1" stop-color="#fd9ab6"/></linearGradient><linearGradient id="fr" x1="330.34" y1="364.2" x2="350.09" y2="369.49" gradientTransform="matrix(1, 0, 0, -1, 0, 394.6)" gradientUnits="userSpaceOnUse"><stop offset="0.07" stop-color="#1e63fb"/><stop offset="0.62" stop-color="#b0cafa"/></linearGradient><linearGradient id="fs" x1="328.77" y1="405.98" x2="348.52" y2="411.27" xlink:href="#fr"/><linearGradient id="ft" x1="327.99" y1="426.87" x2="347.74" y2="432.16" gradientTransform="matrix(1, 0, 0, -1, 0, 394.6)" gradientUnits="userSpaceOnUse"><stop offset="0.07" stop-color="#3eb596"/><stop offset="0.62" stop-color="#c1fed6"/></linearGradient><linearGradient id="fu" x1="327.23" y1="447.67" x2="346.98" y2="452.96" xlink:href="#fr"/><linearGradient id="fv" x1="326.44" y1="468.56" x2="346.19" y2="473.85" xlink:href="#ft"/><linearGradient id="fw" x1="329.55" y1="385.09" x2="349.3" y2="390.38" xlink:href="#ft"/><linearGradient id="fx" x1="399.59" y1="509.7" x2="329" y2="509.7" gradientTransform="matrix(1, 0, 0, -1, 0, 394.6)" gradientUnits="userSpaceOnUse"><stop offset="0" stop-color="#143068" stop-opacity="0.65"/><stop offset="1" stop-color="#143068"/></linearGradient><linearGradient id="fy" x1="330.45" y1="479.05" x2="444.44" y2="559.63" gradientTransform="matrix(1, -0.01, -0.01, -1, -22.2, 404.4)" gradientUnits="userSpaceOnUse"><stop offset="0" stop-color="#143068"/><stop offset="1" stop-color="#b0cafa"/></linearGradient><linearGradient id="fz" x1="380.89" y1="540.1" x2="366.64" y2="532.89" gradientTransform="matrix(1, 0, 0, -1, 0, 394.6)" gradientUnits="userSpaceOnUse"><stop offset="0" stop-color="#fff"/><stop offset="1" stop-color="#b0cafa" stop-opacity="0"/></linearGradient><linearGradient id="ga" x1="384.83" y1="535.25" x2="390.36" y2="535.25" xlink:href="#fz"/><linearGradient id="gb" x1="408.47" y1="540.55" x2="406.22" y2="539.57" xlink:href="#fz"/><linearGradient id="gc" x1="374.67" y1="532.8" x2="370.25" y2="527.28" gradientTransform="matrix(1, 0, 0, -1, 0, 394.6)" gradientUnits="userSpaceOnUse"><stop offset="0" stop-color="#143068"/><stop offset="1" stop-color="#1e63fb"/></linearGradient><linearGradient id="gd" x1="362.28" y1="484.49" x2="489.38" y2="598.48" gradientTransform="matrix(1, -0.01, -0.01, -1, -216.17, 567.12)" gradientUnits="userSpaceOnUse"><stop offset="0" stop-color="#b0cafa"/><stop offset="1" stop-color="#fff"/></linearGradient><linearGradient id="ge" x1="357.99" y1="489.28" x2="485.08" y2="603.27" gradientTransform="matrix(1, -0.01, -0.01, -1, -22.2, 404.4)" xlink:href="#gd"/><linearGradient id="gf" x1="380.35" y1="528.33" x2="378.17" y2="515.44" gradientTransform="matrix(1, 0, 0, -1, 0, 394.6)" gradientUnits="userSpaceOnUse"><stop offset="0" stop-color="#fff"/><stop offset="1" stop-color="#fff" stop-opacity="0.25"/></linearGradient><linearGradient id="gg" x1="354.54" y1="498.78" x2="355.52" y2="506.81" gradientTransform="matrix(1, 0, 0, -1, 0, 394.6)" gradientUnits="userSpaceOnUse"><stop offset="0" stop-color="#1e63fb"/><stop offset="1" stop-color="#1e63fb" stop-opacity="0.2"/></linearGradient></defs><title>wb-goals-research</title><g style="opacity:0.30000001192092896"><path d="M272-12.3C364.6-47.8,502.9-40.7,581,3.8s66.2,109.3-26.5,144.9-230.9,28.4-309-16.1C167.6,88.2,179.3,23.3,272-12.3ZM544.5,143c86-33,97-93.2,24.5-134.6s-201-48-287-15S184.9,86.7,257.4,128s201.1,48.1,287.1,15" transform="translate(-193.97 162.72)" style="fill:#5fc7a6;opacity:0.25099998712539673;isolation:isolate"/><path d="M302.7,5.3c72.5-27.8,180.7-22.1,241.7,12.6s51.8,85.6-20.7,113.3S343,153.3,282,118.6,230.3,33.1,302.7,5.3ZM572.8,76.6c1.8-9.7-.4-19.4-6.5-28.8-6.3-9.7-16.6-18.6-30.5-26.6S505.2,6.8,486,2a306,306,0,0,0-59-8.6,324.15,324.15,0,0,0-61,2.4A253.79,253.79,0,0,0,310.3,9.4c-16.5,6.4-29.8,14.1-39.6,22.9-9.4,8.6-15,17.8-16.8,27.5s0.4,19.4,6.5,28.8c6.3,9.7,16.6,18.6,30.6,26.6s30.6,14.4,49.8,19.2a306,306,0,0,0,59,8.6,324.49,324.49,0,0,0,61-2.4A253.79,253.79,0,0,0,516.5,127c16.5-6.4,29.8-14.1,39.6-22.9,9.3-8.6,14.9-17.8,16.7-27.5" transform="translate(-193.97 162.72)" style="fill:#5fc7a6;opacity:0.6000000238418579;isolation:isolate"/></g><path d="M453.2-162.1L269-89.5c-5.5,2.2-9.9,9.1-9.9,15.5V60.1c0,6.4,4.5,9.8,9.9,7.6L453.1-4.9c5.5-2.2,9.9-9.1,9.9-15.5V-154.5C463.1-160.8,458.6-164.2,453.2-162.1Z" transform="translate(-193.97 162.72)" style="fill:url(#a)"/><path d="M455.3-161c5.5-2.2,9.9,1.3,9.9,7.6V-19.3c0,6.4-4.5,13.3-9.9,15.5L271.1,68.7c-5.5,2.2-9.9-1.3-9.9-7.6V-73c0-6.4,4.5-13.3,9.9-15.5Z" transform="translate(-193.97 162.72)" style="fill:url(#b)"/><path d="M455.3-158.6c4.3-1.7,7.8,1,7.8,6V-18.5c0,5-3.5,10.5-7.8,12.2L271.1,66.3c-4.3,1.7-7.8-1-7.8-6V-73.8c0-5,3.5-10.5,7.8-12.2Z" transform="translate(-193.97 162.72)" style="fill:url(#c)"/><polygon points="259.93 15.52 259.93 141.82 78.42 213.22 78.53 87.02 259.93 15.52" style="fill:#fd759c"/><g style="isolation:isolate"><path d="M566,50.3v0.5L474.1-.5c-4.7-2.6-12.9-3-18.4-.8L271.5,71.2V69.3h-5V76h0c0,1.4,1,2.8,3.1,4l95.8,53.5c4.7,2.6,12.9,3,18.4.8L568.3,61.6c3.1-1.2,4.7-3,4.6-4.8h0V50.3H566Z" transform="translate(-193.97 162.72)" style="fill:url(#d)"/><path d="M569.9,46.4L474.1-7.1c-4.7-2.6-12.9-3-18.4-.8L271.2,64.8c-5.5,2.2-6.2,6-1.5,8.6l95.8,53.5c4.7,2.6,12.9,3,18.4.8L568.4,55C573.9,52.9,574.5,49,569.9,46.4Z" transform="translate(-193.97 162.72)" style="fill:url(#e)"/><path d="M446.6,3.7c3-1.2,7.5-1,10,.4L507,32.2c2.5,1.4,2.2,3.5-.8,4.7L356.7,95.8c-3,1.2-7.5,1-10-.4L296.3,67.3c-2.5-1.4-2.2-3.5.8-4.7Z" transform="translate(-193.97 162.72)" style="fill:url(#f)"/><path d="M352.1,96.4a11.51,11.51,0,0,1-4.9-1L296.8,67.3a2,2,0,0,1-1.1-1.1c0-.3.4-0.8,1.7-1.4L446.9,5.9a12.54,12.54,0,0,1,4.1-.7,11.51,11.51,0,0,1,4.9,1l50.4,28.1a2,2,0,0,1,1.1,1.1c0,0.3-.4.8-1.7,1.4L356.2,95.7A13,13,0,0,1,352.1,96.4Z" transform="translate(-193.97 162.72)" style="fill:url(#g)"/><g style="opacity:0.20000000298023224"><polygon points="276.93 158.82 329.93 188.52 315.93 194.02 262.93 164.42 276.93 158.82" style="fill:#7ea6e8"/><polygon points="97.13 229.72 150.13 259.32 136.13 264.82 83.03 235.22 97.13 229.72" style="fill:#7ea6e8"/></g><path d="M431.7,15.6a2.26,2.26,0,0,1,1.8.1l3.4,1.9c0.5,0.3.4,0.6-.1,0.8l-7.9,3.1a2.26,2.26,0,0,1-1.8-.1l-3.4-1.9c-0.5-.3-0.4-0.6.1-0.8Z" transform="translate(-193.97 162.72)" style="fill:url(#h)"/><path d="M469.5,15.3a2,2,0,0,1,1.7.1l6.1,3.4c0.5,0.3.4,0.7-.1,0.9L470,22.5a2.24,2.24,0,0,1-1.8-.1L462.1,19c-0.4-.2-0.3-0.6.2-0.8Z" transform="translate(-193.97 162.72)" style="fill:url(#i)"/><path d="M444,16.8a2.26,2.26,0,0,1,1.8.1l6.1,3.4c0.4,0.2.4,0.6-.1,0.8l-7.2,2.8a2.26,2.26,0,0,1-1.8-.1l-6.1-3.4c-0.5-.3-0.4-0.6.1-0.8Z" transform="translate(-193.97 162.72)" style="fill:url(#j)"/><path d="M478.5,20.4a2.47,2.47,0,0,1,1.7,0l6,3.4c0.5,0.3.2,0.6-.2,0.8l-15.5,6.1a3.15,3.15,0,0,1-1.9.1l-6-3.4c-0.4-.2-0.1-0.7.5-0.9Z" transform="translate(-193.97 162.72)" style="fill:url(#k)"/><path d="M422.4,25.2a2.26,2.26,0,0,1,1.8.1l6.1,3.4c0.5,0.3.4,0.6-.1,0.8L423,32.3a2.26,2.26,0,0,1-1.8-.1l-6.1-3.4c-0.5-.3-0.4-0.6.1-0.8Z" transform="translate(-193.97 162.72)" style="fill:url(#l)"/><path d="M459.4,28a2.26,2.26,0,0,1,1.8.1l6.1,3.4c0.5,0.3.4,0.6-.1,0.8L460,35.1a2.26,2.26,0,0,1-1.8-.1l-6.1-3.4c-0.5-.3-0.4-0.6.1-0.8Z" transform="translate(-193.97 162.72)" style="fill:url(#m)"/><path d="M411.5,29.5a2.51,2.51,0,0,1,1.9.1l6,3.4c0.5,0.3.4,0.7-.1,0.9l-7.2,2.8a2.75,2.75,0,0,1-1.8-.1l-6-3.4c-0.5-.3-0.4-0.6.1-0.8Z" transform="translate(-193.97 162.72)" style="fill:url(#n)"/><path d="M487.3,25.3a2.26,2.26,0,0,1,1.8.1l6.1,3.4c0.5,0.3.4,0.6-.1,0.8l-20.8,8.2a2.26,2.26,0,0,1-1.8-.1l-6.1-3.4c-0.5-.3-0.4-0.6.1-0.8Z" transform="translate(-193.97 162.72)" style="fill:url(#o)"/><path d="M448.5,32.2a2.26,2.26,0,0,1,1.8.1l6.1,3.4c0.5,0.3.4,0.6-.1,0.8l-7.2,2.8a2.26,2.26,0,0,1-1.8-.1l-6.1-3.4c-0.5-.3-0.4-0.6.1-0.8Z" transform="translate(-193.97 162.72)" style="fill:url(#p)"/><path d="M386.9,33.2a2.26,2.26,0,0,1,1.8.1l3.4,1.9c0.5,0.3.4,0.6-.1,0.8l-7.9,3.1a2.26,2.26,0,0,1-1.8-.1l-3.4-1.9c-0.5-.3-0.4-0.6.1-0.8Z" transform="translate(-193.97 162.72)" style="fill:url(#q)"/><path d="M426.2,32.4a2.77,2.77,0,0,1,1.8,0l6,3.4c0.5,0.3.4,0.7-.1,0.9l-7.2,2.8a2.49,2.49,0,0,1-1.9-.2l-6-3.4c-0.4-.2-0.4-0.6.2-0.8Z" transform="translate(-193.97 162.72)" style="fill:url(#r)"/><path d="M400.7,33.8a2.51,2.51,0,0,1,1.9.1l6,3.4c0.5,0.3.4,0.7-.1,0.9L401.3,41a3.1,3.1,0,0,1-1.9-.1l-6-3.4c-0.5-.3-0.4-0.6.1-0.9Z" transform="translate(-193.97 162.72)" style="fill:url(#s)"/><path d="M462.9,34.9a2.26,2.26,0,0,1,1.8.1l6.1,3.4c0.5,0.3.4,0.6-.1,0.8L463.5,42a2.26,2.26,0,0,1-1.8-.1l-6.1-3.4c-0.5-.3-0.4-0.6.1-0.8Z" transform="translate(-193.97 162.72)" style="fill:url(#t)"/><path d="M485.8,34.8a3.4,3.4,0,0,1,2,0l7.3,4.1a0.56,0.56,0,0,1-.2,1l-7.5,2.9a3.42,3.42,0,0,1-2-.1l-7.3-4.1c-0.4-.3-0.4-0.7.2-0.9Z" transform="translate(-193.97 162.72)" style="fill:url(#u)"/><path d="M389.9,38.1a1.76,1.76,0,0,1,1.6.2l6,3.4c0.4,0.2.6,0.6,0.1,0.8l-7.2,2.8a2.29,2.29,0,0,1-1.8-.2l-6-3.4c-0.4-.2-0.5-0.6,0-0.8Z" transform="translate(-193.97 162.72)" style="fill:url(#v)"/><path d="M452.2,39.2a3.06,3.06,0,0,1,1.9.2l6,3.4c0.4,0.2.4,0.5-.2,0.8l-7.2,2.8a2.25,2.25,0,0,1-1.8,0l-6-3.4c-0.5-.3-0.5-0.8.1-1Z" transform="translate(-193.97 162.72)" style="fill:url(#w)"/><path d="M404.5,40.9a2.26,2.26,0,0,1,1.8.1l6.1,3.4c0.5,0.3.4,0.6-.1,0.8L405.1,48a2.26,2.26,0,0,1-1.8-.1l-6.1-3.4c-0.5-.3-0.4-0.6.1-0.8Z" transform="translate(-193.97 162.72)" style="fill:url(#x)"/><path d="M441.3,43.4a2.48,2.48,0,0,1,1.9.1l6.1,3.4c0.5,0.3.2,0.6-.3,0.8l-7.2,2.8a2.25,2.25,0,0,1-1.8,0l-6.1-3.4c-0.5-.3-0.4-0.7.2-0.9Z" transform="translate(-193.97 162.72)" style="fill:url(#y)"/><path d="M416.3,44.9a2.26,2.26,0,0,1,1.8.1l6.1,3.4c0.5,0.3.4,0.6-.1,0.8L416.9,52a2.26,2.26,0,0,1-1.8-.1L409,48.5c-0.5-.3-0.4-0.6.1-0.8Z" transform="translate(-193.97 162.72)" style="fill:url(#z)"/><path d="M430.5,47.7a2.26,2.26,0,0,1,1.8.1l6.1,3.4c0.5,0.3.4,0.6-.1,0.8l-7.2,2.8a2.26,2.26,0,0,1-1.8-.1l-6.1-3.4c-0.5-.3-0.4-0.6.1-0.8Z" transform="translate(-193.97 162.72)" style="fill:url(#aa)"/><path d="M383.1,49.4a2,2,0,0,1,1.7.1l6,3.4c0.5,0.3.6,0.7,0.1,0.9l-7.2,2.8a3.76,3.76,0,0,1-2.1-.1l-6-3.4c-0.5-.3-0.2-0.7.3-0.9Z" transform="translate(-193.97 162.72)" style="fill:url(#ab)"/><path d="M357.6,50.8a2,2,0,0,1,1.7.1l6.1,3.4c0.5,0.3.4,0.6-.1,0.8l-7.2,2.8a2.77,2.77,0,0,1-1.8,0l-6.1-3.4c-0.4-.2-0.4-0.7.2-0.9Z" transform="translate(-193.97 162.72)" style="fill:url(#ac)"/><path d="M419.7,51.9a2.26,2.26,0,0,1,1.8.1l6.1,3.4c0.5,0.3.4,0.6-.1,0.8L420.3,59a2.26,2.26,0,0,1-1.8-.1l-6.1-3.4c-0.5-.3-0.4-0.6.1-0.8Z" transform="translate(-193.97 162.72)" style="fill:url(#ad)"/><path d="M394.8,53.4a2.26,2.26,0,0,1,1.8.1l6.1,3.4c0.5,0.3.4,0.6-.1,0.8l-7.2,2.8a2.26,2.26,0,0,1-1.8-.1L387.5,57c-0.5-.3-0.4-0.6.1-0.8Z" transform="translate(-193.97 162.72)" style="fill:url(#ae)"/><path d="M346.7,55.1a2.26,2.26,0,0,1,1.8.1l6.1,3.4c0.4,0.2.4,0.6-.1,0.8l-7.2,2.8a2.26,2.26,0,0,1-1.8-.1l-6.1-3.4c-0.5-.3-0.4-0.6.1-0.8Z" transform="translate(-193.97 162.72)" style="fill:url(#af)"/><path d="M408.9,56.2a2.26,2.26,0,0,1,1.8.1l6.1,3.4c0.5,0.3.4,0.6-.1,0.8l-7.2,2.8a2.26,2.26,0,0,1-1.8-.1l-6.1-3.4c-0.5-.3-0.4-0.6.1-0.8Z" transform="translate(-193.97 162.72)" style="fill:url(#ag)"/><path d="M319.8,59.6a2.26,2.26,0,0,1,1.8.1l3.3,1.9c0.5,0.3.4,0.7-.1,0.9l-8,3.1a2.79,2.79,0,0,1-1.8-.1l-3.3-1.9c-0.5-.3-0.4-0.6.1-0.8Z" transform="translate(-193.97 162.72)" style="fill:url(#ah)"/><path d="M335.8,59.3a2.26,2.26,0,0,1,1.8.1l6.1,3.4c0.5,0.3.4,0.6-.1,0.8l-7.2,2.8a2.26,2.26,0,0,1-1.8-.1l-6.1-3.4c-0.5-.3-0.4-0.6.2-0.9Z" transform="translate(-193.97 162.72)" style="fill:url(#ai)"/><path d="M325.1,63.6a2.26,2.26,0,0,1,1.8.1l6.1,3.4c0.5,0.3.4,0.6-.1,0.8l-7.2,2.8a2.26,2.26,0,0,1-1.8-.1l-6.1-3.4c-0.5-.3-0.4-0.6.1-0.8Z" transform="translate(-193.97 162.72)" style="fill:url(#aj)"/><path d="M439.7,53a3,3,0,0,1,2.3.1l6.9,3.9c0.6,0.3.5,0.9-.2,1.1L398.6,77.8a2.75,2.75,0,0,1-2.2-.2l-6.9-3.9c-0.6-.3-0.6-0.8.1-1Z" transform="translate(-193.97 162.72)" style="fill:url(#ak)"/><path d="M365.8,73.2a2.26,2.26,0,0,1,1.8.1l6.1,3.4c0.5,0.3.4,0.6-.1,0.8l-7.2,2.8a2.26,2.26,0,0,1-1.8-.1l-6.1-3.4c-0.5-.3-0.4-0.6.1-0.8Z" transform="translate(-193.97 162.72)" style="fill:url(#al)"/><path d="M385.9,74.2a2.79,2.79,0,0,1,2.2.1l7,3.9c0.6,0.3.5,0.8-.1,1.1l-9.7,3.8a3.33,3.33,0,0,1-2.2-.1l-7-3.9c-0.6-.3-0.5-0.8.2-1Z" transform="translate(-193.97 162.72)" style="fill:url(#am)"/><path d="M340.8,74.7a2.48,2.48,0,0,1,1.9.1l6.1,3.4c0.4,0.2.3,0.6-.2,0.9L333,85.3a2.26,2.26,0,0,1-1.8-.1l-6.1-3.4c-0.5-.3-0.4-0.6.1-0.8Z" transform="translate(-193.97 162.72)" style="fill:url(#an)"/><path d="M361.6,83.7a2.76,2.76,0,0,1,2.2.1l7,3.9c0.6,0.3.5,0.8-.2,1.1l-7.1,2.8a3,3,0,0,1-2.3-.1l-7-3.9c-0.5-.3-0.4-0.8.3-1.1Z" transform="translate(-193.97 162.72)" style="fill:url(#ao)"/><path d="M442.9,11.2a2.26,2.26,0,0,1,1.8.1l3.4,1.9c0.5,0.3.4,0.6-.1,0.8l-7.9,3.1a2.26,2.26,0,0,1-1.8-.1l-3.4-1.9c-0.5-.3-0.4-0.6.1-0.8Z" transform="translate(-193.97 162.72)" style="fill:url(#ap)"/><path d="M460.4,10.3a2.26,2.26,0,0,1,1.8.1l6.1,3.4c0.4,0.2.4,0.6-.2,0.8L455,19.7a2,2,0,0,1-1.7-.1l-6.1-3.4c-0.5-.3-0.5-0.6.1-0.8Z" transform="translate(-193.97 162.72)" style="fill:url(#aq)"/><path d="M420.5,20a2.26,2.26,0,0,1,1.8.1l3.4,1.9c0.5,0.3.4,0.6-.1,0.8l-7.9,3.1a2.26,2.26,0,0,1-1.8-.1l-3.4-1.9c-0.5-.3-0.4-0.6.1-0.8Z" transform="translate(-193.97 162.72)" style="fill:url(#ar)"/><path d="M458.7,19.6a1.81,1.81,0,0,1,1.6.1l6,3.4c0.5,0.3.6,0.7,0.1,0.9l-7.1,2.7a3,3,0,0,1-2.1-.1l-6-3.4c-0.4-.2-0.2-0.7.4-0.9Z" transform="translate(-193.97 162.72)" style="fill:url(#as)"/><path d="M433.3,21a1.76,1.76,0,0,1,1.6.2l6,3.4c0.4,0.2.6,0.6,0.1,0.8l-7.2,2.8a3.75,3.75,0,0,1-2.1,0l-6-3.4c-0.4-.2-0.2-0.7.4-0.9Z" transform="translate(-193.97 162.72)" style="fill:url(#at)"/><path d="M409.3,24.4a2.26,2.26,0,0,1,1.8.1l3.4,1.9c0.5,0.3.4,0.6-.1,0.8l-7.9,3.1a2.26,2.26,0,0,1-1.8-.1l-3.4-1.9c-0.5-.3-0.4-0.6.1-0.8Z" transform="translate(-193.97 162.72)" style="fill:url(#au)"/><path d="M447.7,23.9a1.81,1.81,0,0,1,1.6.1l6,3.4c0.5,0.3.6,0.7,0.1,0.9l-7.2,2.8a2.82,2.82,0,0,1-1.8-.2l-6-3.4c-0.5-.3-0.5-0.5,0-0.7Z" transform="translate(-193.97 162.72)" style="fill:url(#av)"/><path d="M398.1,28.8a2.26,2.26,0,0,1,1.8.1l3.4,1.9c0.5,0.3.4,0.6-.1,0.8l-7.9,3.1a2.26,2.26,0,0,1-1.8-.1l-3.4-1.9c-0.5-.3-0.4-0.6.1-0.8Z" transform="translate(-193.97 162.72)" style="fill:url(#aw)"/><path d="M437,28.1a2.76,2.76,0,0,1,1.8,0l6,3.4c0.5,0.3.5,0.7-.1,0.9l-7.2,2.8a2.49,2.49,0,0,1-1.9-.2l-6-3.4c-0.4-.2-0.4-0.6.2-0.8Z" transform="translate(-193.97 162.72)" style="fill:url(#ax)"/><path d="M501,32.9a2.49,2.49,0,0,1,1.9.2l2.9,1.6a0.47,0.47,0,0,1,0,.9l-7.5,2.9a2.77,2.77,0,0,1-2-.1l-2.9-1.6a0.52,0.52,0,0,1,.1-1Z" transform="translate(-193.97 162.72)" style="fill:url(#ay)"/><path d="M375.7,37.6a2.15,2.15,0,0,1,1.6.1l3.4,1.9c0.4,0.2.6,0.6,0,.8l-7.9,3.1a2.15,2.15,0,0,1-1.6-.1l-3.4-1.9c-0.4-.2-0.6-0.5,0-0.8Z" transform="translate(-193.97 162.72)" style="fill:url(#az)"/><path d="M415.3,36.7a2.25,2.25,0,0,1,1.8,0l6,3.4a0.52,0.52,0,0,1-.1,1l-7.2,2.8a2.54,2.54,0,0,1-1.9-.2l-6-3.4c-0.5-.3-0.4-0.6.1-0.8Z" transform="translate(-193.97 162.72)" style="fill:url(#ba)"/><path d="M479.3,41.5a3.76,3.76,0,0,1,2.1.1l2.9,1.6c0.5,0.3.4,0.7-.2,0.9L476.6,47a2.75,2.75,0,0,1-1.8-.1l-2.9-1.6c-0.5-.3-0.6-0.7,0-0.9Z" transform="translate(-193.97 162.72)" style="fill:url(#bb)"/><path d="M427,40.7a2.26,2.26,0,0,1,1.8.1l6.1,3.4c0.5,0.3.4,0.6-.1,0.8l-7.2,2.8a2.26,2.26,0,0,1-1.8-.1l-6.1-3.4c-0.5-.3-0.4-0.6.1-0.8Z" transform="translate(-193.97 162.72)" style="fill:url(#bc)"/><path d="M364.6,42a2.26,2.26,0,0,1,1.8.1l3.4,1.9c0.5,0.3.4,0.6-.1,0.8l-7.9,3.1a2.26,2.26,0,0,1-1.8-.1l-3.4-1.9c-0.5-.3-0.4-0.6.1-0.8Z" transform="translate(-193.97 162.72)" style="fill:url(#bd)"/><path d="M379,42.3a2.26,2.26,0,0,1,1.8.1l6.1,3.4c0.5,0.3.4,0.6-.1,0.8l-7.2,2.8a2.26,2.26,0,0,1-1.8-.1l-6.1-3.4c-0.5-.3-0.4-0.6.1-0.8Z" transform="translate(-193.97 162.72)" style="fill:url(#be)"/><path d="M464.2,43.3a2.79,2.79,0,0,1,2.2.1l7,3.9c0.6,0.3.5,0.8-.2,1l-7.1,2.8a2.79,2.79,0,0,1-2.2-.1l-7-3.9c-0.6-.3-0.5-0.8.2-1Z" transform="translate(-193.97 162.72)" style="fill:url(#bf)"/><path d="M393.9,45.1a2.47,2.47,0,0,1,1.7,0l6.1,3.4c0.5,0.3.4,0.7-.1,0.9l-7.2,2.8a2.24,2.24,0,0,1-1.8-.1l-6.1-3.4c-0.4-.2-0.4-0.6.2-0.8Z" transform="translate(-193.97 162.72)" style="fill:url(#bg)"/><path d="M353.4,46.4a2,2,0,0,1,1.7.1l3.3,1.9c0.5,0.3.5,0.6,0,.8l-8,3.1a2.24,2.24,0,0,1-1.8-.1l-3.3-1.9c-0.5-.3-0.4-0.6.1-0.8Z" transform="translate(-193.97 162.72)" style="fill:url(#bh)"/><path d="M405.5,49.2a2.26,2.26,0,0,1,1.8.1l6.1,3.4c0.5,0.3.4,0.6-.1,0.8l-7.2,2.8a2.26,2.26,0,0,1-1.8-.1l-6.1-3.4c-0.5-.3-0.4-0.6.1-0.8Z" transform="translate(-193.97 162.72)" style="fill:url(#bi)"/><path d="M342.2,50.8a2.26,2.26,0,0,1,1.8.1l3.4,1.9c0.5,0.3.4,0.6-.1,0.8l-8,3.1a2.26,2.26,0,0,1-1.8-.1l-3.4-1.9c-0.5-.3-0.4-0.6.1-0.8Z" transform="translate(-193.97 162.72)" style="fill:url(#bj)"/><path d="M372.2,53.7a2.47,2.47,0,0,1,1.7,0l6.1,3.4c0.5,0.3.4,0.7-.1,0.9l-7.2,2.8a2.24,2.24,0,0,1-1.8-.1l-6.1-3.4c-0.4-.2-0.3-0.6.2-0.8Z" transform="translate(-193.97 162.72)" style="fill:url(#bk)"/><path d="M331,55.2a2.26,2.26,0,0,1,1.8.1l3.4,1.9c0.5,0.3.4,0.6-.1,0.8l-7.9,3.1a2.26,2.26,0,0,1-1.8-.1L323,59.1c-0.5-.3-0.4-0.6.1-0.8Z" transform="translate(-193.97 162.72)" style="fill:url(#bl)"/><path d="M384,57.7a2.26,2.26,0,0,1,1.8.1l6.1,3.4c0.5,0.3.4,0.6-.1,0.8l-7.2,2.8a2.26,2.26,0,0,1-1.8-.1l-6.1-3.4c-0.5-.3-0.4-0.6.1-0.8Z" transform="translate(-193.97 162.72)" style="fill:url(#bm)"/><path d="M398.2,60.4a2.8,2.8,0,0,1,2,.2l6,3.4c0.5,0.3.2,0.6-.2,0.8l-7.2,2.8a2.25,2.25,0,0,1-1.8,0l-6-3.4c-0.4-.3-0.5-0.8,0-1Z" transform="translate(-193.97 162.72)" style="fill:url(#bn)"/><path d="M373.3,61.9a2.26,2.26,0,0,1,1.8.1l6.1,3.4c0.5,0.3.4,0.6-.1,0.8L373.9,69a2.26,2.26,0,0,1-1.8-.1L366,65.5c-0.5-.3-0.4-0.6.1-0.8Z" transform="translate(-193.97 162.72)" style="fill:url(#bo)"/><path d="M308.6,64a2.26,2.26,0,0,1,1.8.1l3.4,1.9c0.5,0.3.4,0.6-.1,0.8l-7.9,3.1a2.26,2.26,0,0,1-1.8-.1l-3.4-1.9c-0.5-.3-0.4-0.6.1-0.8Z" transform="translate(-193.97 162.72)" style="fill:url(#bp)"/><path d="M362.4,66.2a2.24,2.24,0,0,1,1.8.1l6.1,3.4c0.4,0.2.3,0.6-.2,0.8l-7.2,2.8a2,2,0,0,1-1.7-.1l-6.1-3.4c-0.5-.3-0.4-0.6.1-0.8Z" transform="translate(-193.97 162.72)" style="fill:url(#bq)"/><path d="M339.7,66.5a2.5,2.5,0,0,1,1.9,0l6,3.4a0.52,0.52,0,0,1-.1,1l-7.2,2.8a2.54,2.54,0,0,1-1.9-.2l-6-3.4c-0.5-.3-0.4-0.6.1-0.8Z" transform="translate(-193.97 162.72)" style="fill:url(#br)"/><path d="M376.6,68.9a2.26,2.26,0,0,1,1.8.1l6.1,3.4c0.5,0.3.4,0.6-.1,0.8L377.2,76a2.26,2.26,0,0,1-1.8-.1l-6.1-3.4c-0.5-.3-0.4-0.6.1-0.8Z" transform="translate(-193.97 162.72)" style="fill:url(#bs)"/><path d="M351.8,70.3a2.26,2.26,0,0,1,1.8.1l6.1,3.4c0.4,0.3.4,0.6-.1,0.8l-7.2,2.8a2.26,2.26,0,0,1-1.8-.1l-6.1-3.4c-0.5-.3-0.4-0.6.1-0.8Z" transform="translate(-193.97 162.72)" style="fill:url(#bt)"/><path d="M328.8,70.7a2,2,0,0,1,1.7.1l6.1,3.4c0.4,0.2.5,0.6,0,.8l-12.7,5a2.24,2.24,0,0,1-1.8-.1L316,76.5c-0.4-.2-0.3-0.6.2-0.8Z" transform="translate(-193.97 162.72)" style="fill:url(#bu)"/><path d="M372.5,79.5a2.79,2.79,0,0,1,2.2.1l7,3.9c0.6,0.3.5,0.8-.2,1l-7.1,2.8a2.79,2.79,0,0,1-2.2-.1l-7-3.9c-0.6-.3-0.5-0.8.2-1Z" transform="translate(-193.97 162.72)" style="fill:url(#bv)"/><path d="M437.8,36.4a2.26,2.26,0,0,1,1.8.1l6.1,3.4c0.5,0.3.4,0.6-.1,0.8l-7.2,2.8a2.26,2.26,0,0,1-1.8-.1L430.5,40c-0.5-.3-0.4-0.6.1-0.8Z" transform="translate(-193.97 162.72)" style="fill:url(#bw)"/><path d="M453.2,47.7a2.79,2.79,0,0,1,2.2.1l7,3.9c0.6,0.3.5,0.8-.2,1l-9.6,3.8a2.79,2.79,0,0,1-2.2-.1l-7-3.9c-0.6-.3-0.5-0.8.2-1Z" transform="translate(-193.97 162.72)" style="fill:url(#bx)"/><path d="M454.1,6.8a2.26,2.26,0,0,1,1.8.1l3.4,1.9c0.5,0.3.4,0.6-.1,0.8l-7.9,3.1a2.26,2.26,0,0,1-1.8-.1l-3.4-1.9c-0.5-.3-0.4-0.6.1-0.8Z" transform="translate(-193.97 162.72)" style="fill:url(#by)"/><path d="M368.4,46.5a2.26,2.26,0,0,1,1.8.1l6.1,3.4c0.5,0.3.4,0.6-.1,0.8L369,53.6a2.26,2.26,0,0,1-1.8-.1l-6.1-3.4c-0.5-.3-0.4-0.6.1-0.8Z" transform="translate(-193.97 162.72)" style="fill:url(#bz)"/><path d="M361.4,57.9a2,2,0,0,1,1.7.1l6.1,3.4c0.5,0.3.4,0.7-.1,0.9l-7.2,2.8A2.51,2.51,0,0,1,360,65l-6.1-3.4c-0.4-.2-0.3-0.6.2-0.8Z" transform="translate(-193.97 162.72)" style="fill:url(#ca)"/><path d="M350.5,62.2a2.5,2.5,0,0,1,1.9,0l6,3.4c0.5,0.3.4,0.8-.2,1L351,69.4a2.25,2.25,0,0,1-1.8-.2l-6-3.4c-0.5-.3-0.4-0.6.1-0.8Z" transform="translate(-193.97 162.72)" style="fill:url(#cb)"/><path d="M387.3,64.7a2.48,2.48,0,0,1,1.9.1l6.1,3.4c0.5,0.3.2,0.6-.3,0.8l-7.2,2.8a1.79,1.79,0,0,1-1.6-.1l-6.1-3.4c-0.4-.2-0.5-0.6,0-0.8Z" transform="translate(-193.97 162.72)" style="fill:url(#cc)"/><path d="M314.4,67.8a2.42,2.42,0,0,1,1.7.1l6,3.4c0.4,0.2.6,0.6,0,.8l-7.2,2.8a3.39,3.39,0,0,1-2,0l-6-3.4c-0.5-.3-0.2-0.7.3-0.9Z" transform="translate(-193.97 162.72)" style="fill:url(#cd)"/><path d="M355,77.4a3,3,0,0,1,2.1.2l6,3.4c0.5,0.3.2,0.6-.4,0.8L341.8,90a2.25,2.25,0,0,1-1.8,0l-6-3.4a0.52,0.52,0,0,1,.1-1Z" transform="translate(-193.97 162.72)" style="fill:url(#ce)"/><path d="M350.6,88.1a3,3,0,0,1,2.3.1l6.9,3.9c0.6,0.3.5,0.9-.2,1.1l-7,2.7a3,3,0,0,1-2.3-.1l-6.9-3.9c-0.6-.3-0.5-0.8.2-1.1Z" transform="translate(-193.97 162.72)" style="fill:url(#cf)"/><g style="opacity:0.1899999976158142"><path d="M455.7-7.9L271.2,64.8c-5.5,2.2-6.2,6-1.5,8.6l95.8,53.5c4.7,2.6,12.9,3,18.4.8l79-31.1V-9.3A23,23,0,0,0,455.7-7.9Z" transform="translate(-193.97 162.72)" style="fill:url(#cg)"/><path d="M453.9,4.5L273.3,75.4l92.2,51.5c4.7,2.6,12.9,3,18.4.8l70-27.6V4.5Z" transform="translate(-193.97 162.72)" style="fill:url(#ch)"/></g><polygon points="270.73 222.12 300.73 238.92 247.03 260.02 217.03 243.32 270.73 222.12" style="fill:#7ea6e8;opacity:0.20000000298023224;isolation:isolate"/><path d="M431.7,15.1a2.26,2.26,0,0,1,1.8.1l3.4,1.9c0.5,0.3.4,0.6-.1,0.8L428.9,21a2.26,2.26,0,0,1-1.8-.1L423.7,19c-0.5-.3-0.4-0.6.1-0.8Z" transform="translate(-193.97 162.72)" style="fill:url(#ci)"/><path d="M469.5,14.9a2,2,0,0,1,1.7.1l6.1,3.4c0.5,0.3.4,0.7-.1,0.9L470,22.1a2.24,2.24,0,0,1-1.8-.1l-6.1-3.4c-0.4-.2-0.3-0.6.2-0.8Z" transform="translate(-193.97 162.72)" style="fill:url(#cj)"/><path d="M444,16.3a2.26,2.26,0,0,1,1.8.1l6.1,3.4c0.4,0.2.4,0.6-.1,0.8l-7.2,2.8a2.26,2.26,0,0,1-1.8-.1l-6.1-3.4c-0.5-.3-0.4-0.6.1-0.8Z" transform="translate(-193.97 162.72)" style="fill:url(#ck)"/><path d="M478.5,19.9a2.47,2.47,0,0,1,1.7,0l6,3.4c0.5,0.3.2,0.6-.2,0.8l-15.5,6.1a3.15,3.15,0,0,1-1.9.1l-6-3.4c-0.4-.2-0.1-0.7.5-0.9Z" transform="translate(-193.97 162.72)" style="fill:url(#cl)"/><path d="M422.4,24.8a2.26,2.26,0,0,1,1.8.1l6.1,3.4c0.5,0.3.4,0.6-.1,0.8L423,31.9a2.26,2.26,0,0,1-1.8-.1l-6.1-3.4c-0.5-.3-0.4-0.6.1-0.8Z" transform="translate(-193.97 162.72)" style="fill:url(#cm)"/><path d="M459.4,27.5a2.26,2.26,0,0,1,1.8.1l6.1,3.4c0.5,0.3.4,0.6-.1,0.8L460,34.6a2.26,2.26,0,0,1-1.8-.1l-6.1-3.4c-0.5-.3-0.4-0.6.1-0.8Z" transform="translate(-193.97 162.72)" style="fill:url(#cn)"/><path d="M411.5,29.1a2.51,2.51,0,0,1,1.9.1l6,3.4c0.5,0.3.4,0.7-.1,0.9l-7.2,2.8a2.75,2.75,0,0,1-1.8-.1l-6-3.4c-0.5-.3-0.4-0.6.1-0.8Z" transform="translate(-193.97 162.72)" style="fill:url(#co)"/><path d="M487.3,24.8a2.26,2.26,0,0,1,1.8.1l6.1,3.4c0.5,0.3.4,0.6-.1,0.8l-20.8,8.3a2.26,2.26,0,0,1-1.8-.1l-6.1-3.4c-0.5-.3-0.4-0.6.1-0.8Z" transform="translate(-193.97 162.72)" style="fill:url(#cp)"/><path d="M448.5,31.7a2.26,2.26,0,0,1,1.8.1l6.1,3.4c0.5,0.3.4,0.6-.1,0.8l-7.2,2.8a2.26,2.26,0,0,1-1.8-.1l-6.1-3.4c-0.5-.3-0.4-0.6.1-0.8Z" transform="translate(-193.97 162.72)" style="fill:url(#cq)"/><path d="M386.9,32.7a2.26,2.26,0,0,1,1.8.1l3.4,1.9c0.5,0.3.4,0.6-.1,0.8l-7.9,3.1a2.26,2.26,0,0,1-1.8-.1l-3.4-1.9c-0.5-.3-0.4-0.6.1-0.8Z" transform="translate(-193.97 162.72)" style="fill:url(#cr)"/><path d="M426.2,31.9a2.77,2.77,0,0,1,1.8,0l6,3.4c0.5,0.3.4,0.7-.1,0.9L426.7,39a2.49,2.49,0,0,1-1.9-.2l-6-3.4c-0.4-.2-0.4-0.6.2-0.8Z" transform="translate(-193.97 162.72)" style="fill:url(#cs)"/><path d="M400.7,33.3a2.51,2.51,0,0,1,1.9.1l6,3.4c0.5,0.3.4,0.7-.1,0.9l-7.2,2.8a3.1,3.1,0,0,1-1.9-.1l-6-3.4c-0.5-.3-0.4-0.6.1-0.9Z" transform="translate(-193.97 162.72)" style="fill:url(#ct)"/><path d="M462.9,34.4a2.26,2.26,0,0,1,1.8.1l6.1,3.4c0.5,0.3.4,0.6-.1,0.8l-7.2,2.8a2.26,2.26,0,0,1-1.8-.1L455.6,38c-0.5-.3-0.4-0.6.1-0.8Z" transform="translate(-193.97 162.72)" style="fill:url(#cu)"/><path d="M485.8,34.3a3.4,3.4,0,0,1,2,0l7.3,4.1a0.56,0.56,0,0,1-.2,1l-7.5,2.9a3.42,3.42,0,0,1-2-.1l-7.3-4.1c-0.4-.3-0.4-0.7.2-0.9Z" transform="translate(-193.97 162.72)" style="fill:url(#cv)"/><path d="M389.9,37.6a1.76,1.76,0,0,1,1.6.2l6,3.4c0.4,0.2.6,0.6,0.1,0.8l-7.2,2.8a2.29,2.29,0,0,1-1.8-.2l-6-3.4c-0.4-.2-0.5-0.6,0-0.8Z" transform="translate(-193.97 162.72)" style="fill:url(#cw)"/><path d="M452.2,38.7a3.06,3.06,0,0,1,1.9.2l6,3.4c0.4,0.2.4,0.5-.2,0.8l-7.2,2.8a2.25,2.25,0,0,1-1.8,0l-6-3.4c-0.5-.3-0.5-0.8.1-1Z" transform="translate(-193.97 162.72)" style="fill:url(#cx)"/><path d="M404.5,40.4a2.26,2.26,0,0,1,1.8.1l6.1,3.4c0.5,0.3.4,0.6-.1,0.8l-7.2,2.8a2.26,2.26,0,0,1-1.8-.1L397.2,44c-0.5-.3-0.4-0.6.1-0.8Z" transform="translate(-193.97 162.72)" style="fill:url(#cy)"/><path d="M441.3,42.9a2.48,2.48,0,0,1,1.9.1l6.1,3.4c0.5,0.3.2,0.6-.3,0.8L441.8,50a2.25,2.25,0,0,1-1.8,0l-6.1-3.4c-0.5-.3-0.4-0.7.2-0.9Z" transform="translate(-193.97 162.72)" style="fill:url(#cz)"/><path d="M416.3,44.4a2.26,2.26,0,0,1,1.8.1l6.1,3.4c0.5,0.3.4,0.6-.1,0.8l-7.2,2.8a2.26,2.26,0,0,1-1.8-.1L409,48c-0.5-.3-0.4-0.6.1-0.8Z" transform="translate(-193.97 162.72)" style="fill:url(#da)"/><path d="M430.5,47.2a2.26,2.26,0,0,1,1.8.1l6.1,3.4c0.5,0.3.4,0.6-.1,0.8l-7.2,2.8a2.26,2.26,0,0,1-1.8-.1l-6.1-3.4c-0.5-.3-0.4-0.6.1-0.8Z" transform="translate(-193.97 162.72)" style="fill:url(#db)"/><path d="M383.1,48.9a2,2,0,0,1,1.7.1l6,3.4c0.5,0.3.6,0.7,0.1,0.9l-7.2,2.8a3.76,3.76,0,0,1-2.1-.1l-6-3.4c-0.5-.3-0.2-0.7.3-0.9Z" transform="translate(-193.97 162.72)" style="fill:url(#dc)"/><path d="M357.6,50.3a2,2,0,0,1,1.7.1l6.1,3.4c0.5,0.3.4,0.6-.1,0.8l-7.2,2.8a2.77,2.77,0,0,1-1.8,0L350.2,54c-0.4-.2-0.4-0.7.2-0.9Z" transform="translate(-193.97 162.72)" style="fill:url(#dd)"/><path d="M419.7,51.4a2.26,2.26,0,0,1,1.8.1l6.1,3.4c0.5,0.3.4,0.6-.1,0.8l-7.2,2.8a2.26,2.26,0,0,1-1.8-.1L412.4,55c-0.5-.3-0.4-0.6.1-0.8Z" transform="translate(-193.97 162.72)" style="fill:url(#de)"/><path d="M394.8,52.9a2.26,2.26,0,0,1,1.8.1l6.1,3.4c0.5,0.3.4,0.6-.1,0.8L395.4,60a2.26,2.26,0,0,1-1.8-.1l-6.1-3.4c-0.5-.3-0.4-0.6.1-0.8Z" transform="translate(-193.97 162.72)" style="fill:url(#df)"/><path d="M346.7,54.6a2.26,2.26,0,0,1,1.8.1l6.1,3.4c0.4,0.2.4,0.6-.1,0.8l-7.2,2.8a2.26,2.26,0,0,1-1.8-.1l-6.1-3.4c-0.5-.3-0.4-0.6.1-0.8Z" transform="translate(-193.97 162.72)" style="fill:url(#dg)"/><path d="M408.9,55.7a2.26,2.26,0,0,1,1.8.1l6.1,3.4c0.5,0.3.4,0.6-.1,0.8l-7.2,2.8a2.26,2.26,0,0,1-1.8-.1l-6.1-3.4c-0.5-.3-0.4-0.6.1-0.8Z" transform="translate(-193.97 162.72)" style="fill:url(#dh)"/><path d="M319.8,59.1a2.26,2.26,0,0,1,1.8.1l3.3,1.9c0.5,0.3.4,0.7-.1,0.9l-8,3.1A2.79,2.79,0,0,1,315,65l-3.3-1.9c-0.5-.3-0.4-0.6.1-0.8Z" transform="translate(-193.97 162.72)" style="fill:url(#di)"/><path d="M335.8,58.9a2.26,2.26,0,0,1,1.8.1l6.1,3.4c0.5,0.3.4,0.6-.1,0.8L336.4,66a2.26,2.26,0,0,1-1.8-.1l-6.1-3.4c-0.5-.3-0.4-0.6.2-0.9Z" transform="translate(-193.97 162.72)" style="fill:url(#dj)"/><path d="M325.1,63.1a2.26,2.26,0,0,1,1.8.1l6.1,3.4c0.5,0.3.4,0.6-.1,0.8l-7.2,2.8a2.26,2.26,0,0,1-1.8-.1l-6.1-3.4c-0.5-.3-0.4-0.6.1-0.8Z" transform="translate(-193.97 162.72)" style="fill:url(#dk)"/><path d="M439.7,52.5a3,3,0,0,1,2.3.1l6.9,3.9c0.6,0.3.5,0.9-.2,1.1L398.6,77.3a2.75,2.75,0,0,1-2.2-.2l-6.9-3.9c-0.6-.3-0.6-0.8.1-1Z" transform="translate(-193.97 162.72)" style="fill:url(#dl)"/><path d="M365.8,72.7a2.26,2.26,0,0,1,1.8.1l6.1,3.4c0.5,0.3.4,0.6-.1,0.8l-7.2,2.8a2.26,2.26,0,0,1-1.8-.1l-6.1-3.4c-0.5-.3-0.4-0.6.1-0.8Z" transform="translate(-193.97 162.72)" style="fill:url(#dm)"/><path d="M385.9,73.7a2.79,2.79,0,0,1,2.2.1l7,3.9c0.6,0.3.5,0.8-.1,1.1l-9.7,3.8a3.33,3.33,0,0,1-2.2-.1l-7-3.9c-0.6-.3-0.5-0.8.2-1Z" transform="translate(-193.97 162.72)" style="fill:url(#dn)"/><path d="M340.8,74.2a2.48,2.48,0,0,1,1.9.1l6.1,3.4c0.4,0.2.3,0.6-.2,0.9L333,84.7a2.26,2.26,0,0,1-1.8-.1l-6.1-3.4c-0.5-.3-0.4-0.6.1-0.8Z" transform="translate(-193.97 162.72)" style="fill:url(#do)"/><path d="M361.6,83.3a2.76,2.76,0,0,1,2.2.1l7,3.9c0.6,0.3.5,0.8-.2,1.1l-7.1,2.8a3,3,0,0,1-2.3-.1l-7-3.9c-0.5-.3-0.4-0.8.3-1.1Z" transform="translate(-193.97 162.72)" style="fill:url(#dp)"/><path d="M442.9,10.7a2.26,2.26,0,0,1,1.8.1l3.4,1.9c0.5,0.3.4,0.6-.1,0.8l-7.9,3.1a2.26,2.26,0,0,1-1.8-.1l-3.4-1.9c-0.5-.3-0.4-0.6.1-0.8Z" transform="translate(-193.97 162.72)" style="fill:url(#dq)"/><path d="M460.4,9.8a2.26,2.26,0,0,1,1.8.1l6.1,3.4c0.4,0.2.4,0.6-.2,0.8L455,19.2a2,2,0,0,1-1.7-.1l-6.1-3.4c-0.5-.3-0.5-0.6.1-0.8Z" transform="translate(-193.97 162.72)" style="fill:url(#dr)"/><path d="M420.5,19.5a2.26,2.26,0,0,1,1.8.1l3.4,1.9c0.5,0.3.4,0.6-.1,0.8l-7.9,3.1a2.26,2.26,0,0,1-1.8-.1l-3.4-1.9c-0.5-.3-0.4-0.6.1-0.8Z" transform="translate(-193.97 162.72)" style="fill:url(#ds)"/><path d="M458.7,19.1a1.81,1.81,0,0,1,1.6.1l6,3.4c0.5,0.3.6,0.7,0.1,0.9l-7.2,2.8a3,3,0,0,1-2.1-.1l-6-3.4c-0.4-.2-0.2-0.7.4-0.9Z" transform="translate(-193.97 162.72)" style="fill:url(#dt)"/><path d="M433.3,20.5a1.76,1.76,0,0,1,1.6.2l6,3.4c0.4,0.2.6,0.6,0.1,0.8l-7.2,2.8a3.75,3.75,0,0,1-2.1,0l-6-3.4c-0.4-.2-0.2-0.7.4-0.9Z" transform="translate(-193.97 162.72)" style="fill:url(#du)"/><path d="M409.3,23.9a2.26,2.26,0,0,1,1.8.1l3.4,1.9c0.5,0.3.4,0.6-.1,0.8l-7.9,3.1a2.26,2.26,0,0,1-1.8-.1l-3.4-1.9c-0.5-.3-0.4-0.6.1-0.8Z" transform="translate(-193.97 162.72)" style="fill:url(#dv)"/><path d="M447.7,23.4a1.81,1.81,0,0,1,1.6.1l6,3.4c0.5,0.3.6,0.7,0.1,0.9l-7.2,2.8a2.82,2.82,0,0,1-1.8-.2l-6-3.4c-0.5-.3-0.5-0.5,0-0.7Z" transform="translate(-193.97 162.72)" style="fill:url(#dw)"/><path d="M398.1,28.3a2.26,2.26,0,0,1,1.8.1l3.4,1.9c0.5,0.3.4,0.6-.1,0.8l-7.9,3.1a2.26,2.26,0,0,1-1.8-.1l-3.4-1.9c-0.5-.3-0.4-0.6.1-0.8Z" transform="translate(-193.97 162.72)" style="fill:url(#dx)"/><path d="M437,27.6a2.76,2.76,0,0,1,1.8,0l6,3.4c0.5,0.3.5,0.7-.1,0.9l-7.2,2.8a2.49,2.49,0,0,1-1.9-.2l-6-3.4c-0.4-.2-0.4-0.6.2-0.8Z" transform="translate(-193.97 162.72)" style="fill:url(#dy)"/><path d="M501,32.5a2.49,2.49,0,0,1,1.9.2l2.9,1.6a0.47,0.47,0,0,1,0,.9l-7.5,2.9a2.77,2.77,0,0,1-2-.1l-2.9-1.6a0.52,0.52,0,0,1,.1-1Z" transform="translate(-193.97 162.72)" style="fill:url(#dz)"/><path d="M375.7,37.1a2.15,2.15,0,0,1,1.6.1l3.4,1.9c0.4,0.2.6,0.6,0,.8L372.8,43a2.15,2.15,0,0,1-1.6-.1L367.8,41c-0.4-.2-0.6-0.5,0-0.8Z" transform="translate(-193.97 162.72)" style="fill:url(#ea)"/><path d="M415.3,36.2a2.25,2.25,0,0,1,1.8,0l6,3.4a0.52,0.52,0,0,1-.1,1l-7.2,2.8a2.54,2.54,0,0,1-1.9-.2l-6-3.4c-0.5-.3-0.4-0.6.1-0.8Z" transform="translate(-193.97 162.72)" style="fill:url(#eb)"/><path d="M479.3,41a3.76,3.76,0,0,1,2.1.1l2.9,1.6c0.5,0.3.4,0.7-.2,0.9l-7.5,2.9a2.75,2.75,0,0,1-1.8-.1l-2.9-1.6c-0.5-.3-0.6-0.7,0-0.9Z" transform="translate(-193.97 162.72)" style="fill:url(#ec)"/><path d="M427,40.2a2.26,2.26,0,0,1,1.8.1l6.1,3.4c0.5,0.3.4,0.6-.1,0.8l-7.2,2.8a2.26,2.26,0,0,1-1.8-.1l-6.1-3.4c-0.5-.3-0.4-0.6.1-0.8Z" transform="translate(-193.97 162.72)" style="fill:url(#ed)"/><path d="M364.6,41.5a2.26,2.26,0,0,1,1.8.1l3.4,1.9c0.5,0.3.4,0.6-.1,0.8l-7.9,3.1a2.26,2.26,0,0,1-1.8-.1l-3.4-1.9c-0.5-.3-0.4-0.6.1-0.8Z" transform="translate(-193.97 162.72)" style="fill:url(#ee)"/><path d="M379,41.8a2.26,2.26,0,0,1,1.8.1l6.1,3.4c0.5,0.3.4,0.6-.1,0.8l-7.2,2.8a2.26,2.26,0,0,1-1.8-.1l-6.1-3.4c-0.5-.3-0.4-0.6.1-0.8Z" transform="translate(-193.97 162.72)" style="fill:url(#ef)"/><path d="M464.2,42.8a2.79,2.79,0,0,1,2.2.1l7,3.9c0.6,0.3.5,0.8-.2,1l-7.1,2.8a2.79,2.79,0,0,1-2.2-.1l-7-3.9c-0.6-.3-0.5-0.8.2-1Z" transform="translate(-193.97 162.72)" style="fill:url(#eg)"/><path d="M393.9,44.6a2.47,2.47,0,0,1,1.7,0l6.1,3.4c0.5,0.3.4,0.7-.1,0.9l-7.2,2.8a2.24,2.24,0,0,1-1.8-.1l-6.1-3.4c-0.4-.2-0.4-0.6.2-0.8Z" transform="translate(-193.97 162.72)" style="fill:url(#eh)"/><path d="M353.4,45.9a2,2,0,0,1,1.7.1l3.3,1.9c0.5,0.3.5,0.6,0,.8l-8,3.1a2.24,2.24,0,0,1-1.8-.1l-3.3-1.9c-0.5-.3-0.4-0.6.1-0.8Z" transform="translate(-193.97 162.72)" style="fill:url(#ei)"/><path d="M405.5,48.7a2.26,2.26,0,0,1,1.8.1l6.1,3.4c0.5,0.3.4,0.6-.1,0.8l-7.2,2.8a2.26,2.26,0,0,1-1.8-.1l-6.1-3.4c-0.5-.3-0.4-0.6.1-0.8Z" transform="translate(-193.97 162.72)" style="fill:url(#ej)"/><path d="M342.2,50.3a2.26,2.26,0,0,1,1.8.1l3.4,1.9c0.5,0.3.4,0.6-.1,0.8l-7.9,3.1a2.26,2.26,0,0,1-1.8-.1l-3.4-1.9c-0.5-.3-0.4-0.6.1-0.8Z" transform="translate(-193.97 162.72)" style="fill:url(#ek)"/><path d="M372.2,53.2a2.47,2.47,0,0,1,1.7,0l6.1,3.4c0.5,0.3.4,0.7-.1,0.9l-7.2,2.8a2.24,2.24,0,0,1-1.8-.1l-6.1-3.4c-0.4-.2-0.3-0.6.2-0.8Z" transform="translate(-193.97 162.72)" style="fill:url(#el)"/><path d="M331,54.7a2.26,2.26,0,0,1,1.8.1l3.4,1.9c0.5,0.3.4,0.6-.1,0.8l-7.9,3.1a2.26,2.26,0,0,1-1.8-.1L323,58.6c-0.5-.3-0.4-0.6.1-0.8Z" transform="translate(-193.97 162.72)" style="fill:url(#em)"/><path d="M384,57.2a2.26,2.26,0,0,1,1.8.1l6.1,3.4c0.5,0.3.4,0.6-.1,0.8l-7.2,2.8a2.26,2.26,0,0,1-1.8-.1l-6.1-3.4c-0.5-.3-0.4-0.6.1-0.8Z" transform="translate(-193.97 162.72)" style="fill:url(#en)"/><path d="M398.2,59.9a2.8,2.8,0,0,1,2,.2l6,3.4c0.5,0.3.2,0.6-.2,0.8l-7.2,2.8a2.25,2.25,0,0,1-1.8,0l-6-3.4c-0.4-.3-0.5-0.8,0-1Z" transform="translate(-193.97 162.72)" style="fill:url(#eo)"/><path d="M373.3,61.4a2.26,2.26,0,0,1,1.8.1l6.1,3.4c0.5,0.3.4,0.6-.1,0.8l-7.2,2.8a2.26,2.26,0,0,1-1.8-.1L366,65c-0.5-.3-0.4-0.6.1-0.8Z" transform="translate(-193.97 162.72)" style="fill:url(#ep)"/><path d="M308.6,63.5a2.26,2.26,0,0,1,1.8.1l3.4,1.9c0.5,0.3.4,0.6-.1,0.8l-7.9,3.1a2.26,2.26,0,0,1-1.8-.1l-3.4-1.9c-0.5-.3-0.4-0.6.1-0.8Z" transform="translate(-193.97 162.72)" style="fill:url(#eq)"/><path d="M362.4,65.7a2.24,2.24,0,0,1,1.8.1l6.1,3.4c0.4,0.2.3,0.6-.2,0.8l-7.2,2.8a2,2,0,0,1-1.7-.1l-6.1-3.4c-0.5-.3-0.4-0.6.1-0.8Z" transform="translate(-193.97 162.72)" style="fill:url(#er)"/><path d="M339.7,66a2.5,2.5,0,0,1,1.9,0l6,3.4a0.52,0.52,0,0,1-.1,1l-7.2,2.8a2.54,2.54,0,0,1-1.9-.2l-6-3.4c-0.5-.3-0.4-0.6.1-0.8Z" transform="translate(-193.97 162.72)" style="fill:url(#es)"/><path d="M376.6,68.5a2.26,2.26,0,0,1,1.8.1l6.1,3.4c0.5,0.3.4,0.6-.1,0.8l-7.2,2.8a2.26,2.26,0,0,1-1.8-.1l-6.1-3.4c-0.5-.3-0.4-0.6.1-0.8Z" transform="translate(-193.97 162.72)" style="fill:url(#et)"/><path d="M351.8,69.9a2.26,2.26,0,0,1,1.8.1l6.1,3.4c0.4,0.3.4,0.6-.1,0.8L352.4,77a2.26,2.26,0,0,1-1.8-.1l-6.1-3.4c-0.5-.3-0.4-0.6.1-0.8Z" transform="translate(-193.97 162.72)" style="fill:url(#eu)"/><path d="M328.8,70.3a2,2,0,0,1,1.7.1l6.1,3.4c0.4,0.2.5,0.6,0,.8l-12.7,5a2.24,2.24,0,0,1-1.8-.1L316,76.1c-0.4-.2-0.3-0.6.2-0.8Z" transform="translate(-193.97 162.72)" style="fill:url(#ev)"/><path d="M372.5,79a2.79,2.79,0,0,1,2.2.1l7,3.9c0.6,0.3.5,0.8-.2,1l-7.1,2.8a2.79,2.79,0,0,1-2.2-.1l-7-3.9c-0.6-.3-0.5-0.8.2-1Z" transform="translate(-193.97 162.72)" style="fill:url(#ew)"/><path d="M437.8,36a2.26,2.26,0,0,1,1.8.1l6.1,3.4c0.5,0.3.4,0.6-.1,0.8l-7.2,2.8a2.26,2.26,0,0,1-1.8-.1l-6.1-3.4c-0.5-.3-0.4-0.6.1-0.8Z" transform="translate(-193.97 162.72)" style="fill:url(#ex)"/><path d="M453.2,47.2a2.79,2.79,0,0,1,2.2.1l7,3.9c0.6,0.3.5,0.8-.2,1L452.6,56a2.79,2.79,0,0,1-2.2-.1l-7-3.9c-0.6-.3-0.5-0.8.2-1Z" transform="translate(-193.97 162.72)" style="fill:url(#ey)"/><path d="M454.1,6.3a2.26,2.26,0,0,1,1.8.1l3.4,1.9c0.5,0.3.4,0.6-.1,0.8l-7.9,3.1a2.26,2.26,0,0,1-1.8-.1l-3.4-1.9c-0.5-.3-0.4-0.6.1-0.8Z" transform="translate(-193.97 162.72)" style="fill:url(#ez)"/><path d="M368.4,46.1a2.26,2.26,0,0,1,1.8.1l6.1,3.4c0.5,0.3.4,0.6-.1,0.8L369,53.2a2.26,2.26,0,0,1-1.8-.1l-6.1-3.4c-0.5-.3-0.4-0.6.1-0.8Z" transform="translate(-193.97 162.72)" style="fill:url(#fa)"/><path d="M361.4,57.4a2,2,0,0,1,1.7.1l6.1,3.4c0.5,0.3.4,0.7-.1,0.9l-7.2,2.8a2.51,2.51,0,0,1-1.9-.1l-6.1-3.4c-0.4-.2-0.3-0.6.2-0.8Z" transform="translate(-193.97 162.72)" style="fill:url(#fb)"/><path d="M350.5,61.7a2.5,2.5,0,0,1,1.9,0l6,3.4c0.5,0.3.4,0.8-.2,1L351,68.9a2.25,2.25,0,0,1-1.8-.2l-6-3.4c-0.5-.3-0.4-0.6.1-0.8Z" transform="translate(-193.97 162.72)" style="fill:url(#fc)"/><path d="M387.3,64.2a2.48,2.48,0,0,1,1.9.1l6.1,3.4c0.5,0.3.2,0.6-.3,0.8l-7.2,2.8a1.79,1.79,0,0,1-1.6-.1l-6.1-3.4c-0.4-.2-0.5-0.6,0-0.8Z" transform="translate(-193.97 162.72)" style="fill:url(#fd)"/><path d="M314.4,67.3a2.42,2.42,0,0,1,1.7.1l6,3.4c0.4,0.2.6,0.6,0,.8l-7.2,2.8a3.39,3.39,0,0,1-2,0l-6-3.4c-0.5-.3-0.2-0.7.3-0.9Z" transform="translate(-193.97 162.72)" style="fill:url(#fe)"/><path d="M355,76.9a3,3,0,0,1,2.1.2l6,3.4c0.5,0.3.2,0.6-.4,0.8l-20.9,8.2a2.25,2.25,0,0,1-1.8,0l-6-3.4a0.52,0.52,0,0,1,.1-1Z" transform="translate(-193.97 162.72)" style="fill:url(#ff)"/><path d="M350.6,87.6a3,3,0,0,1,2.3.1l6.9,3.9c0.6,0.3.5,0.9-.2,1.1l-7,2.7a3,3,0,0,1-2.3-.1l-6.9-3.9c-0.6-.3-0.5-0.8.2-1.1Z" transform="translate(-193.97 162.72)" style="fill:url(#fg)"/></g><polygon points="259.93 15.52 259.93 141.82 78.42 213.22 78.53 87.02 259.93 15.52" style="fill:url(#fh)"/><g style="opacity:0.4000000059604645"><polygon points="259.93 15.52 259.93 141.82 78.42 213.22 78.53 87.02 259.93 15.52" style="fill:url(#fi)"/></g><polygon points="78.42 213.22 188.43 304.42 393.63 222.52 438.63 16.12 259.93 15.52 78.53 87.02 78.42 213.22" style="opacity:0.25;isolation:isolate;fill:url(#fj)"/><g style="clip-path:url(#fk)"><path d="M421.9-146.5c0-5.7-4-8.8-8.9-6.9l-97.1,38.3h0L422-56.1Z" transform="translate(-193.97 162.72)" style="fill:url(#fl)"/><path d="M306.9,53c0,5.7,4,8.8,8.9,6.9l97.1-38.3c4.9-1.9,9-8.2,9-13.9V-37.2l-115-63.9V53Z" transform="translate(-193.97 162.72)" style="fill:url(#fm)"/><path d="M315.8-115.1c-4.9,2-8.9,8.2-8.9,13.9h0l115,63.9V-56.2Z" transform="translate(-193.97 162.72)" style="fill:#fccade"/><polygon points="120.03 224.62 118.63 218.82 115.92 222.32 120.03 224.62" style="fill:#fc5880"/><polygon points="228.43 11.52 224.13 14.12 224.53 9.42 228.43 11.52" style="fill:url(#fn)"/><path d="M416.9-151.2c4.9-1.9,9,1.1,8.9,6.9V9.8c0,5.8-4,12-9,13.9L319.7,62c-4.9,1.9-9-1.1-8.9-6.9V-99c0-5.7,4-12,9-13.9Z" transform="translate(-193.97 162.72)" style="fill:url(#fo)"/><polygon points="122.83 58.92 122.72 219.92 224.72 179.82 224.72 18.72 122.83 58.92" style="fill:#143068;opacity:0.1599999964237213;isolation:isolate"/><polygon points="124.92 59.52 124.83 219.22 226.82 179.12 226.82 19.32 124.92 59.52" style="fill:url(#fp)"/><polygon points="204.03 148.52 204.03 150.02 145.72 173.02 145.72 171.52 204.03 148.52" style="fill:#8293b3"/><polygon points="215.22 119.32 215.22 120.82 145.72 148.22 145.72 146.72 215.22 119.32" style="fill:#8293b3"/><polygon points="204.03 120.12 204.03 121.62 145.72 144.62 145.72 143.12 204.03 120.12" style="fill:#8293b3"/><polygon points="209.63 104.12 209.63 105.62 145.72 130.82 145.72 129.32 209.63 104.12" style="fill:#8293b3"/><polygon points="204.03 102.72 204.03 104.22 145.72 127.12 145.72 125.62 204.03 102.72" style="fill:#8293b3"/><polygon points="212.43 78.32 212.43 79.82 144.53 106.52 144.53 105.02 212.43 78.32" style="fill:#8293b3"/><polygon points="196.72 67.02 196.72 68.52 144.53 89.12 144.53 87.62 196.72 67.02" style="fill:#8293b3"/><polygon points="144.53 80.32 207.22 55.62 207.22 57.12 144.53 81.82 144.53 80.32" style="fill:#f0f6ff"/><polygon points="144.53 83.92 216.43 55.62 216.43 57.12 144.53 85.42 144.53 83.92" style="fill:#f0f6ff"/><polygon points="144.53 101.32 212.43 74.62 212.43 76.12 144.53 102.92 144.53 101.32" style="fill:#f0f6ff"/><polygon points="144.53 108.72 190.32 90.62 190.32 92.12 144.53 110.22 144.53 108.72" style="fill:#f0f6ff"/><polygon points="145.72 169.32 145.72 167.82 207.22 143.62 207.22 145.12 145.72 169.32" style="fill:#f0f6ff"/><polygon points="145.72 165.72 145.72 164.22 212.43 137.92 212.43 139.42 145.72 165.72" style="fill:#f0f6ff"/><polygon points="145.72 151.92 145.72 150.42 211.13 124.62 211.13 126.12 145.72 151.92" style="fill:#f0f6ff"/><polygon points="212.43 164.12 145.72 190.42 145.72 188.92 212.43 162.62 212.43 164.12" style="fill:#f0f6ff"/><polygon points="217.63 158.42 145.72 186.82 145.72 185.32 217.63 156.92 217.63 158.42" style="fill:#f0f6ff"/><polygon points="217.63 95.22 145.72 123.52 145.72 122.02 217.63 93.72 217.63 95.22" style="fill:#f0f6ff"/><polygon points="212.43 162.62 212.43 164.12 145.72 190.42 145.72 188.92 212.43 162.62" style="fill:#8293b3"/><polygon points="212.43 137.92 212.43 139.42 145.72 165.72 145.72 164.22 212.43 137.92" style="fill:#8293b3"/><polygon points="211.13 124.62 211.13 126.12 145.72 151.92 145.72 150.42 211.13 124.62" style="fill:#8293b3"/><polygon points="212.43 74.62 212.43 76.12 144.53 102.92 144.53 101.32 212.43 74.62" style="fill:#8293b3"/><polygon points="216.43 55.62 216.43 57.12 144.53 85.42 144.53 83.92 216.43 55.62" style="fill:#8293b3"/><polygon points="225.82 18.42 226.82 19.32 124.92 59.52 123.83 58.62 225.82 18.42" style="fill:#fff"/><polygon points="123.83 58.62 124.92 59.52 124.83 219.22 123.72 218.82 123.83 58.62" style="fill:#d6deea"/><polygon points="217.63 156.92 217.63 158.42 145.72 186.82 145.72 185.32 217.63 156.92" style="fill:#8293b3"/><polygon points="207.22 143.62 207.22 145.12 145.72 169.32 145.72 167.82 207.22 143.62" style="fill:#8293b3"/><polygon points="217.63 93.72 217.63 95.22 145.72 123.52 145.72 122.02 217.63 93.72" style="fill:#8293b3"/><polygon points="190.32 90.62 190.32 92.12 144.53 110.22 144.53 108.72 190.32 90.62" style="fill:#8293b3"/><polygon points="207.22 55.62 207.22 57.12 144.53 81.82 144.53 80.32 207.22 55.62" style="fill:#8293b3"/><path d="M349.9,76.2" transform="translate(-193.97 162.72)" style="fill:none;stroke:#ed1c24;stroke-miterlimit:10;stroke-width:0.0655142292380333px"/><path d="M423.3-151.4c-1.8-1.3-4.2-1.4-6.7-.4l-97.1,38.3c-5.2,2-9.4,8.6-9.4,14.5V55.1c0,3.1,1.1,5.7,3.2,7.1a6.85,6.85,0,0,0,3.4,1.1l3.5-1.4a6.22,6.22,0,0,1-5.5-.4,5.74,5.74,0,0,1-.7-0.4,9.27,9.27,0,0,1-1.4-1.4,0.1,0.1,0,0,0-.1-0.1c0-.1-0.1-0.1-0.1-0.2a6.46,6.46,0,0,1-1-3.4V55.2h0V39.5h0V-99c0-5.5,3.8-11.5,8.5-13.3l82.4-32.5h0l14.7-5.8a7.67,7.67,0,0,1,1.9-.5h0.5a6.08,6.08,0,0,1,6.3,6V-148A6.1,6.1,0,0,0,423.3-151.4Z" transform="translate(-193.97 162.72)" style="fill:url(#fq)"/><polygon points="196.63 172.52 196.63 174.02 145.72 194.12 145.72 192.62 196.63 172.52" style="fill:#8293b3"/><path d="M332.2,25.1c2.3-.9,4.1.5,4.1,3.2a7.47,7.47,0,0,1-4.1,6.4c-2.3.9-4.1-.5-4.1-3.2A7.28,7.28,0,0,1,332.2,25.1Zm0,7.9a4.76,4.76,0,0,0,2.6-4.1c0-1.7-1.2-2.6-2.6-2a4.76,4.76,0,0,0-2.6,4.1,1.87,1.87,0,0,0,2.6,2" transform="translate(-193.97 162.72)" style="fill:url(#fr)"/><path d="M332.2-17.1c2.3-.9,4.1.5,4.1,3.2a7.47,7.47,0,0,1-4.1,6.4c-2.3.9-4.1-.5-4.1-3.2A7.28,7.28,0,0,1,332.2-17.1Zm0,7.9a4.76,4.76,0,0,0,2.6-4.1c0-1.7-1.2-2.6-2.6-2a4.76,4.76,0,0,0-2.6,4.1,1.9,1.9,0,0,0,2.6,2" transform="translate(-193.97 162.72)" style="fill:url(#fs)"/><path d="M332.2-38.2c2.3-.9,4.1.5,4.1,3.2a7.34,7.34,0,0,1-4.1,6.4c-2.3.9-4.1-.5-4.1-3.2A7.28,7.28,0,0,1,332.2-38.2Zm0,7.9a4.76,4.76,0,0,0,2.6-4.1c0-1.7-1.2-2.6-2.6-2a4.76,4.76,0,0,0-2.6,4.1,1.9,1.9,0,0,0,2.6,2" transform="translate(-193.97 162.72)" style="fill:url(#ft)"/><path d="M332.2-59.2c2.3-.9,4.1.5,4.1,3.2a7.47,7.47,0,0,1-4.1,6.4c-2.3.9-4.1-.5-4.1-3.2S329.9-58.4,332.2-59.2Zm0,7.8a4.76,4.76,0,0,0,2.6-4.1c0-1.7-1.2-2.6-2.6-2a4.76,4.76,0,0,0-2.6,4.1c0,1.7,1.2,2.6,2.6,2" transform="translate(-193.97 162.72)" style="fill:url(#fu)"/><path d="M332.2-80.3c2.3-.9,4.1.5,4.1,3.2a7.47,7.47,0,0,1-4.1,6.4c-2.3.9-4.1-.5-4.1-3.2S329.9-79.5,332.2-80.3Zm0,7.8a4.76,4.76,0,0,0,2.6-4.1c0-1.7-1.2-2.6-2.6-2a4.76,4.76,0,0,0-2.6,4.1c0,1.7,1.2,2.6,2.6,2" transform="translate(-193.97 162.72)" style="fill:url(#fv)"/><path d="M332.2,4c2.3-.9,4.1.5,4.1,3.2a7.47,7.47,0,0,1-4.1,6.4c-2.3.9-4.1-.5-4.1-3.2A7.28,7.28,0,0,1,332.2,4Zm0,7.9a4.76,4.76,0,0,0,2.6-4.1c0-1.7-1.2-2.6-2.6-2a4.76,4.76,0,0,0-2.6,4.1,1.87,1.87,0,0,0,2.6,2" transform="translate(-193.97 162.72)" style="fill:url(#fw)"/><path d="M402.9-123.8L332.2-96.3l-1.3-1.1L326.8-115l-1-.6a1.88,1.88,0,0,1,.3-3.4l37.5-14.9Z" transform="translate(-193.97 162.72)" style="opacity:0.11999999731779099;isolation:isolate;fill:url(#fx)"/><path d="M409.1-144.2l-1.9-1.8h0c-0.8-.8-2.2-1-3.8-0.4l-12,4.7c-3.5,1.4-6.4.4-7.5-2.4l0.4-.4-1.9-1.7h0l-0.1-.1h0c-1.8-1.6-4.7-2-8.1-.7-4.6,1.8-9,6.2-11.5,11.1-2,4-5.5,7.5-9.1,8.9l-12,4.7a10.85,10.85,0,0,0-6.2,8l-1.3,9.8h0l0.5,0.4-0.8,5.9,1.9,1.8,1-2.9,68.7-26.8,0.9-6.5-69.2,27h0l69.2-27,0.5-.2,1.3-9.8v-0.5Zm-33.8,4.7a4.58,4.58,0,0,1-2.6,3.3,1.28,1.28,0,0,1-1.9-1.5,4.7,4.7,0,0,1,2.5-3.3C374.6-141.5,375.5-140.8,375.3-139.5Z" transform="translate(-193.97 162.72)" style="fill:url(#fy)"/><g style="opacity:0.699999988079071"><path d="M383.9-144l0.4-.4-1.9-1.7h0l-0.1-.1h0c-1.8-1.6-4.7-2-8.1-.7a21.67,21.67,0,0,0-9.5,7.9l2.7,2.6,0.2-.4,5.5-5.7,6.9-2.3,3.1,0.6,1.3,1.8,0.1-.4Z" transform="translate(-193.97 162.72)" style="fill:url(#fz)"/><path d="M384.5-142.9l-0.1.4,0.6,0.9,1.8,2.2,4.6,1,1.6-.6-2.5-2.4C387.9-140.6,385.8-141.2,384.5-142.9Z" transform="translate(-193.97 162.72)" style="fill:url(#ga)"/><path d="M409.1-144.2l-1.9-1.8h0a3.14,3.14,0,0,0-2.9-.6l3,3.1h1.2Z" transform="translate(-193.97 162.72)" style="fill:url(#gb)"/></g><path d="M377.5-133.3l2.5-5.4-5.2-4.8h-2l0.3,0.1-3.5,3.1-0.5,6.9h8.2Zm-2.2-6.2a4.58,4.58,0,0,1-2.6,3.3,1.28,1.28,0,0,1-1.9-1.5,4.7,4.7,0,0,1,2.5-3.3C374.6-141.5,375.5-140.9,375.3-139.5Z" transform="translate(-193.97 162.72)" style="opacity:0.5;isolation:isolate;fill:url(#gc)"/><polygon points="214.13 31.92 213.32 38.42 141.72 66.32 142.63 59.82 214.13 31.92" style="fill:url(#gd)"/><path d="M405.3-144.5c3-1.2,5.1.5,4.7,3.7l-1.3,9.8-0.5.2-71.6,27.9-0.5.2,1.3-9.8a11,11,0,0,1,6.2-8l12-4.7c3.6-1.4,7-4.9,9.1-8.9,2.5-4.9,6.9-9.3,11.5-11.1s8.3-.5,9.7,2.8c1.1,2.8,4,3.8,7.5,2.4Zm-30.6,10a4.63,4.63,0,0,0,2.6-3.3,1.28,1.28,0,0,0-1.9-1.5,4.63,4.63,0,0,0-2.6,3.3,1.28,1.28,0,0,0,1.9,1.5" transform="translate(-193.97 162.72)" style="fill:url(#ge)"/><line x1="140.13" y1="58.22" x2="142.93" y2="60.72" style="fill:none"/><polygon points="140.53 58.72 142.03 60.02 142.63 59.82 142.43 60.72 140.53 58.92 140.53 58.72" style="fill:#143068;opacity:0.5;isolation:isolate"/><g style="opacity:0.3499999940395355"><path d="M372.8-136a1.28,1.28,0,0,0,1.9,1.5,4.29,4.29,0,0,0,2.2-2.2l-3.8-.4A4.51,4.51,0,0,0,372.8-136Z" transform="translate(-193.97 162.72)" style="fill:none"/><path d="M375.4-139.3a4.29,4.29,0,0,0-2.2,2.2l3.8,0.4a2,2,0,0,0,.3-1.1A1.31,1.31,0,0,0,375.4-139.3Z" transform="translate(-193.97 162.72)" style="fill:none"/><path d="M376.9-136.7a4.69,4.69,0,0,1-2.2,2.2,1.28,1.28,0,0,1-1.9-1.5,4.51,4.51,0,0,1,.3-1.1l-6.2-.6a20.62,20.62,0,0,0-2.3,3.7c-2.1,4-5.5,7.5-9.1,8.9l-5.6,2.2,30.2,3,0.1,0.7,10.9,1.1,16-6.2,0.9-6.5,0.5-.2,0.3-2.5Z" transform="translate(-193.97 162.72)" style="fill:url(#gf)"/></g><path d="M362.5-113l-24.2-2.4a9.12,9.12,0,0,0-1,2.9l-1,7.1,5.2,0.5,0.4,0.7,11,1.1,20.9-8.2-10.9-1.1Z" transform="translate(-193.97 162.72)" style="opacity:0.10000000149011612;isolation:isolate;fill:url(#gg)"/><polygon points="142.63 59.82 214.13 31.92 214.03 32.82 142.43 60.72 142.63 59.82" style="fill:#2058a8;opacity:0.23999999463558197;isolation:isolate"/></g><polygon points="111.33 74.02 112.92 73.42 112.92 199.62 111.33 200.22 111.33 74.02" style="fill:#fff;opacity:0.15000000596046448;isolation:isolate"/></svg>